<svg xmlns="http://www.w3.org/2000/svg" viewBox="0 0 61 61"><defs><style>.cls-1{fill:#cdcdcd;}.cls-2{fill:#f2f2f2;}</style></defs><title>Recurso 6</title><g id="Capa_2" data-name="Capa 2"><g id="Capa_5" data-name="Capa 5"><circle class="cls-1" cx="30.5" cy="30.5" r="30.5"/><path class="cls-2" d="M3.92,45.28A8.19,8.19,0,0,0,6,48l19-9V31l-4-7a34.34,34.34,0,0,1-.39-4.68A26.4,26.4,0,0,1,21,15a14.76,14.76,0,0,1,1.87-4.53A7.8,7.8,0,0,1,26,8a14.79,14.79,0,0,1,4.94-1.34,13.77,13.77,0,0,1,5.3,1.07,14.39,14.39,0,0,1,2.85,2.74A24.89,24.89,0,0,1,41,14a34.72,34.72,0,0,1,.35,4.49A50.23,50.23,0,0,1,41,24l-3,7v7l18,9a33.13,33.13,0,0,0,3.7-7.72A35.12,35.12,0,0,0,61,31a48.42,48.42,0,0,0-1.36-9.31A25.29,25.29,0,0,0,57,16a40.14,40.14,0,0,0-6.21-8A27.71,27.71,0,0,0,43,3,30,30,0,0,0,34,.37,38.46,38.46,0,0,0,24.83.6a49.41,49.41,0,0,0-6.95,2.14A26.29,26.29,0,0,0,13,5.42,40.75,40.75,0,0,0,8,9.87,35,35,0,0,0,5,14a28.4,28.4,0,0,0-2.45,4.6A29.85,29.85,0,0,0,1,23.06l-.06.25A32.66,32.66,0,0,0,.18,30C0,35,2,43,3.92,45.28Z"/></g></g></svg>