<?xml version="1.0" encoding="utf-8"?>
<!-- Generator: Adobe Illustrator 24.0.2, SVG Export Plug-In . SVG Version: 6.00 Build 0)  -->
<svg version="1.1" id="Capa_1" xmlns="http://www.w3.org/2000/svg" xmlns:xlink="http://www.w3.org/1999/xlink" x="0px" y="0px"
	 viewBox="0 0 120.7 120.3" style="enable-background:new 0 0 120.7 120.3;" xml:space="preserve">
<style type="text/css">
	.st0{fill:#FFFFFF;}
	.st1{fill:none;}
	.st2{fill:none;stroke:#FFFFFF;stroke-width:1.5;stroke-miterlimit:10;}
	.st3{fill:none;stroke:#FFFFFF;stroke-width:1.25;stroke-miterlimit:10;stroke-dasharray:3;}
</style>
<title>Recurso 5</title>
<g id="Capa_2_1_">
	<g id="Layer_1">
		<path class="st0" d="M47.8,23c-4.4,3.9-8.8,7.7-13.2,11.7c-0.8,0.8-2.5,1.8-2.6,3c0,0.3,0,0.6,0,0.9v53.1c0,0.6,0.4,1,1,1h52
			c0.6,0,1-0.4,1-1v-68c0-0.6-0.4-1-1-1H48.5c-0.6,0-1,0.4-1,1s0.4,1,1,1H85l-1-1v68l1-1H33l1,1V37.6l-0.3,0.7
			c5.1-4.7,10.3-9.2,15.5-13.9C50.1,23.6,48.7,22.2,47.8,23z"/>
		<polyline class="st0" points="48.5,23.7 48.5,37.6 33,37.6 		"/>
		<path class="st0" d="M47.9,23.7v13.9l0.6-0.6H33c-0.3,0-0.6,0.4-0.5,0.7c0,0.3,0.3,0.5,0.5,0.5h15.5c0.3,0,0.6-0.3,0.6-0.6V23.7
			c0-0.3-0.4-0.6-0.7-0.5C48.1,23.2,47.9,23.4,47.9,23.7z"/>
		<path class="st1" d="M120.7,60.2c0.1,33.3-26.8,60.4-60.1,60.5C27.2,120.8,0.1,93.9,0,60.5S26.8,0.1,60.2,0c0.1,0,0.1,0,0.2,0
			C93.6-0.1,120.6,26.9,120.7,60.2C120.7,60.1,120.7,60.1,120.7,60.2z"/>
		<rect x="69" y="40.7" class="st0" width="4" height="17"/>
		<rect x="45" y="43.7" class="st0" width="4" height="14"/>
		<rect x="60" y="44.7" class="st0" width="5" height="13"/>
		<rect x="53" y="47.7" class="st0" width="4" height="10"/>
		<line class="st2" x1="44.8" y1="63.7" x2="73.9" y2="63.7"/>
		<line class="st2" x1="44.8" y1="70.3" x2="73.9" y2="70.3"/>
		<line class="st2" x1="44.8" y1="76.7" x2="73.9" y2="76.7"/>
	</g>
</g>
<circle class="st3" cx="60" cy="60.5" r="49.9"/>
<circle class="st3" cx="60" cy="60.5" r="49.9"/>
</svg>
