<?xml version="1.0" encoding="utf-8"?>
<!-- Generator: Adobe Illustrator 24.0.2, SVG Export Plug-In . SVG Version: 6.00 Build 0)  -->
<svg version="1.1" xmlns="http://www.w3.org/2000/svg" xmlns:xlink="http://www.w3.org/1999/xlink" x="0px" y="0px"
	 viewBox="0 0 120.7 120.3" style="enable-background:new 0 0 120.7 120.3;" xml:space="preserve">
<style type="text/css">
	.st0{fill:#FFFFFD;}
	.st1{fill:none;stroke:#FFFFFD;stroke-width:2;stroke-miterlimit:10;}
	.st2{fill:none;stroke:#FFFFFD;stroke-width:3;stroke-miterlimit:10;}
	.st3{fill:none;}
	.st4{fill:none;stroke:#FFFFFD;stroke-miterlimit:10;}
	.st5{fill:#FFFFFF;}
	.st6{fill:#252826;}
	.st7{fill:none;stroke:#FFFFFF;stroke-width:1.25;stroke-miterlimit:10;stroke-dasharray:3;}
</style>
<g id="Capa_1">
	<title>Recurso 4</title>
</g>
<g id="Capa_2">
	<g id="Layer_1">
		<path class="st0" d="M31.3,43.5c3.5,11.2,7,22.3,10.5,33.5c0.2,0.5,0.6,0.9,1.2,0.9l27.7-1.4c4.6-0.2,9.1-0.4,13.7-0.7
			c2.2-0.1,2.2-1.8,2.6-3.7c0.4-2.2,0.8-4.3,1.1-6.5c0.8-5,1.6-10.1,2.4-15.2c0.2-0.7-0.2-1.4-0.9-1.5c-0.1,0-0.2,0-0.3,0l-19.2-2.4
			l-30.7-3.8l-7-0.9c-1.6-0.2-1.6,2.3,0,2.5l19.2,2.3l30.7,3.8l7,0.9l-1.2-1.6c-0.7,4.2-1.3,8.3-2,12.5c-0.3,2.1-0.7,4.2-1,6.3
			c-0.2,1-0.4,2.1-0.6,3.1c-0.1,0.5-0.2,1-0.3,1.4c0,0.2,0,0.4-0.1,0.6c0.1-0.5,0.4-0.3-0.3-0.3c-1.1,0-2.2,0-3.2,0.2l-3.2,0.2
			L71,74l-13.2,0.7L43,75.3l1.2,0.9c-3.5-11.2-7-22.3-10.5-33.5C33.2,41.3,30.8,41.9,31.3,43.5z"/>
		<path class="st1" d="M51.6,89.7c0.2,2.3-1.6,4.3-3.9,4.5c0,0,0,0,0,0c-2.3,0.1-4.3-1.7-4.5-4.1c-0.2-2.3,1.6-4.3,3.9-4.5
			c0,0,0,0,0.1,0C49.5,85.6,51.4,87.4,51.6,89.7z"/>
		<path class="st2" d="M44.1,76.1C43,76.4,42,77,41.4,77.9c-0.6,0.8-0.9,1.9-0.8,2.9c0.3,2.6,4.1,4.1,4.1,4.1l40.5-2.1"/>
		<path class="st1" d="M81.1,88.2c0.2,2.3-1.6,4.3-3.9,4.5c0,0,0,0-0.1,0c-2.4,0.1-4.3-1.7-4.5-4.1c-0.2-2.3,1.6-4.3,3.9-4.5
			c0,0,0,0,0.1,0C79,84,81,85.9,81.1,88.2z"/>
		<path class="st3" d="M120.7,60.2c0.1,33.3-26.8,60.4-60.1,60.5C27.2,120.8,0.1,93.9,0,60.5S26.8,0.1,60.2,0c0.1,0,0.1,0,0.2,0
			C93.6-0.1,120.6,26.9,120.7,60.2C120.7,60.1,120.7,60.1,120.7,60.2z"/>
		<line class="st4" x1="45.4" y1="44.8" x2="54.2" y2="76"/>
		<line class="st4" x1="78.2" y1="49.2" x2="73.6" y2="75.2"/>
		<line class="st4" x1="38.6" y1="61.2" x2="88" y2="61.2"/>
		<line class="st4" x1="62.8" y1="46.8" x2="62.8" y2="75.2"/>
		<ellipse class="st5" cx="83.8" cy="44.3" rx="12.9" ry="12.8"/>
		<path class="st6" d="M84.9,50.1v1.9h-1.7v-1.9c-2.5-0.3-4-1.5-4.6-3.6l2.9-0.6c0.3,1.2,1.5,2,2.7,1.8c0.6,0,1.1-0.1,1.6-0.4
			c0.3-0.2,0.5-0.6,0.5-1c0-0.4-0.2-0.7-0.5-0.9c-0.6-0.3-1.2-0.5-1.9-0.6c-2-0.4-3.3-0.9-3.8-1.6c-0.6-0.7-0.9-1.5-0.9-2.4
			c0-1,0.4-2,1.1-2.7c0.7-0.8,1.7-1.2,2.8-1.3v-1.6h1.7v1.6c1.9,0,3.6,1.2,4.2,3l-2.6,0.9c-0.3-1-1.2-1.6-2.3-1.5
			c-1.2,0-1.8,0.4-1.8,1.2c0,0.3,0.1,0.6,0.3,0.8c0.5,0.3,1,0.5,1.6,0.6c1,0.2,2,0.4,3,0.8c0.6,0.3,1.2,0.7,1.6,1.3
			c0.4,0.6,0.6,1.3,0.7,2c0,1.1-0.4,2.1-1.1,2.8C87.4,49.5,86.2,50.1,84.9,50.1z"/>
		<path class="st5" d="M26,36.7c0,1-0.9,1.8-1.9,1.7c-1,0-1.8-0.9-1.7-1.9c0-1,0.8-1.7,1.8-1.7C25.2,34.8,26,35.7,26,36.7
			C26,36.7,26,36.7,26,36.7z"/>
		<path class="st0" d="M25.5,38h5l-1.2-1l1.7,5.6l0.3,0.8c0.2,0.7,0.9,1.1,1.5,0.9c0.7-0.2,1.1-0.9,0.9-1.5l-1.8-5.6l-0.3-0.8
			c-0.2-0.5-0.6-0.9-1.2-0.9h-5c-0.7,0-1.3,0.6-1.3,1.3S24.7,38,25.5,38L25.5,38z"/>
	</g>
	<circle class="st7" cx="60.9" cy="59.1" r="49.9"/>
</g>
</svg>
