<?xml version="1.0" encoding="utf-8"?>
<!-- Generator: Adobe Illustrator 24.0.2, SVG Export Plug-In . SVG Version: 6.00 Build 0)  -->
<svg version="1.1" id="Capa_1" xmlns="http://www.w3.org/2000/svg" xmlns:xlink="http://www.w3.org/1999/xlink" x="0px" y="0px"
	 viewBox="0 0 120.7 120.3" style="enable-background:new 0 0 120.7 120.3;" xml:space="preserve">
<style type="text/css">
	.st0{fill:none;}
	.st1{fill:none;stroke:#FFFFFD;stroke-width:1.4;stroke-miterlimit:10;}
	.st2{fill:none;stroke:#FFFFFF;stroke-miterlimit:10;}
	.st3{fill:none;stroke:#FFFFFF;stroke-width:2;stroke-miterlimit:10;}
	.st4{fill:none;stroke:#FFFFFF;stroke-width:1.25;stroke-miterlimit:10;stroke-dasharray:3;}
</style>
<title>Recurso 13</title>
<g id="Capa_2_1_">
	<g id="Layer_1">
		<path class="st0" d="M120.7,60.2c0.1,33.3-26.8,60.4-60.1,60.5C27.2,120.8,0.1,93.9,0,60.5S26.8,0.1,60.2,0c0.1,0,0.1,0,0.2,0
			C93.6-0.1,120.6,26.9,120.7,60.2C120.7,60.1,120.7,60.1,120.7,60.2z"/>
		<path class="st1" d="M41.1,76.2c4.6-0.2,9.2-0.5,13.8-0.7c-1.3-5.9-3.8-10.7-7.2-13.6c-3.7,3.6-10.9,3.9-13.9-0.5
			c-3.6,2.9-6.4,8-7.8,14.4C31.1,76.2,36.1,76.3,41.1,76.2z"/>
		<path class="st1" d="M50,51.9c0,4.9-3.9,8.9-8.8,8.9c-4.9,0-8.9-3.9-8.9-8.8c0-4.9,3.9-8.9,8.8-8.9c0,0,0,0,0,0
			C46,43.1,50,47,50,51.9C50,51.9,50,51.9,50,51.9z"/>
		<line class="st2" x1="59.7" y1="53.8" x2="91.7" y2="53.8"/>
		<path class="st3" d="M100,84.1c0.1,1.4-1,2.6-2.4,2.7H21.1c-1.4-0.1-2.5-1.3-2.4-2.7V38.3c-0.1-1.4,1-2.6,2.4-2.7h76.5
			c1.4,0.1,2.5,1.3,2.4,2.7V84.1z"/>
		<line class="st2" x1="59.7" y1="61" x2="91.7" y2="61"/>
		<line class="st2" x1="59.7" y1="68.1" x2="91.7" y2="68.1"/>
	</g>
</g>
<circle class="st4" cx="60" cy="60.5" r="49.9"/>
</svg>
