<svg xmlns="http://www.w3.org/2000/svg" viewBox="0 0 118.35 137.74"><defs><style>.cls-1{fill:#fffbfa;}.cls-2{fill:#54defd;}.cls-3{fill:#00bd9d;}.cls-4{font-size:25.74px;fill:#49c6e5;font-family:Santana-Black;font-weight:800;}</style></defs><title>Recurso 1</title><g id="Capa_2" data-name="Capa 2"><g id="OBJECTS"><path class="cls-1" d="M101.25,9.25H22.84a1.14,1.14,0,0,1,0-2.28h78.41a1.14,1.14,0,1,1,0,2.28Z"/><path class="cls-1" d="M101.25,38.17H22.84a1.14,1.14,0,0,1,0-2.28h78.41a1.14,1.14,0,0,1,0,2.28Z"/><path class="cls-1" d="M101.25,67.1H22.84a1.14,1.14,0,0,1,0-2.28h78.41a1.14,1.14,0,0,1,0,2.28Z"/><circle class="cls-2" cx="22.84" cy="8.11" r="8.11"/><circle class="cls-2" cx="75.11" cy="8.11" r="8.11"/><circle class="cls-3" cx="101.25" cy="8.11" r="8.11"/><circle class="cls-2" cx="101.25" cy="37.03" r="8.11"/><circle class="cls-3" cx="22.84" cy="65.96" r="8.11"/><circle class="cls-2" cx="101.25" cy="65.96" r="8.11"/><circle class="cls-3" cx="22.84" cy="37.03" r="8.11"/><circle class="cls-3" cx="48.97" cy="37.03" r="8.11"/><text class="cls-4" transform="translate(0 118.65)">REPORTS</text><path class="cls-1" d="M50.15,127.32l-4.06,10.21a.33.33,0,0,1-.11.15.32.32,0,0,1-.18.06.33.33,0,0,1-.24-.08.32.32,0,0,1-.1-.19.31.31,0,0,1,0-.16l4.31-10.63a.5.5,0,0,1,.12-.17.49.49,0,0,1,.19,0,.37.37,0,0,1,.21.06.33.33,0,0,1,.11.15l4.32,10.63a.41.41,0,0,1,0,.12.3.3,0,0,1-.09.23.41.41,0,0,1-.24.08.37.37,0,0,1-.21-.06.44.44,0,0,1-.12-.15L49.91,127.2Zm-3,6.94.22-.65h5.2l.16.65Z"/><path class="cls-1" d="M62.69,126.51a3.13,3.13,0,0,1,1.6.38A2.69,2.69,0,0,1,65.35,128a3.29,3.29,0,0,1,.38,1.6,3.46,3.46,0,0,1-.38,1.62,2.84,2.84,0,0,1-1.06,1.14,3,3,0,0,1-1.6.42H59.13l.07-.11v4.78a.29.29,0,0,1-.11.22.34.34,0,0,1-.48,0,.31.31,0,0,1-.09-.22V126.83a.34.34,0,0,1,.1-.23.31.31,0,0,1,.22-.09Zm0,5.6a2.21,2.21,0,0,0,2.08-1.24,2.89,2.89,0,0,0,.28-1.3,2.65,2.65,0,0,0-.28-1.27,2.23,2.23,0,0,0-.82-.85,2.45,2.45,0,0,0-1.26-.3H59.15l.05-.08v5.08l-.07,0Z"/><path class="cls-1" d="M73.83,126.51a3.18,3.18,0,0,1,1.6.38A2.82,2.82,0,0,1,76.49,128a3.29,3.29,0,0,1,.37,1.6,3.45,3.45,0,0,1-.37,1.62,2.88,2.88,0,0,1-2.66,1.56H70.27l.06-.11v4.78a.28.28,0,0,1-.1.22.32.32,0,0,1-.23.1.3.3,0,0,1-.25-.1.31.31,0,0,1-.09-.22V126.83a.3.3,0,0,1,.1-.23.29.29,0,0,1,.22-.09Zm0,5.6a2.32,2.32,0,0,0,1.26-.33,2.17,2.17,0,0,0,.81-.91,2.89,2.89,0,0,0,.29-1.3,2.65,2.65,0,0,0-.29-1.27,2.14,2.14,0,0,0-.81-.85,2.5,2.5,0,0,0-1.26-.3H70.28l0-.08v5.08l-.06,0Z"/></g></g></svg>