<svg xmlns="http://www.w3.org/2000/svg" viewBox="0 0 96.18 93.42"><defs><style>.cls-1{fill:#fffbfa;}.cls-2{fill:#54defd;}.cls-3{fill:#00bd9d;}.cls-4{isolation:isolate;}.cls-5{fill:#49c6e5;}</style></defs><title>Recurso 3</title><g id="Capa_2" data-name="Capa 2"><g id="Capa_1-2" data-name="Capa 1"><path class="cls-1" d="M88.07,9.25H9.66A1.14,1.14,0,0,1,9.66,7H88.07a1.14,1.14,0,1,1,0,2.28Z"/><path class="cls-1" d="M88.07,38.17H9.66a1.14,1.14,0,1,1,0-2.28H88.07a1.14,1.14,0,0,1,0,2.28Z"/><path class="cls-1" d="M88.07,67.1H9.66a1.14,1.14,0,0,1,0-2.28H88.07a1.14,1.14,0,0,1,0,2.28Z"/><circle class="cls-2" cx="9.66" cy="8.11" r="8.11"/><circle class="cls-2" cx="61.93" cy="8.11" r="8.11"/><circle class="cls-3" cx="88.07" cy="8.11" r="8.11"/><circle class="cls-2" cx="88.07" cy="37.03" r="8.11"/><circle class="cls-3" cx="9.66" cy="65.96" r="8.11"/><circle class="cls-2" cx="88.07" cy="65.96" r="8.11"/><circle class="cls-3" cx="9.66" cy="37.03" r="8.11"/><circle class="cls-3" cx="35.79" cy="37.03" r="8.11"/><g class="cls-4"><path class="cls-5" d="M0,79.21A.23.23,0,0,1,.21,79c.54-.08,1.23-.16,2.08-.22s1.8-.1,2.86-.1a14.2,14.2,0,0,1,3,.28,5.6,5.6,0,0,1,2,.88,3.47,3.47,0,0,1,1.14,1.32A4.11,4.11,0,0,1,11.78,83a3.36,3.36,0,0,1-.21,1.2A4.12,4.12,0,0,1,10.32,86a3.35,3.35,0,0,1-.78.49,3,3,0,0,1,.93,1,7.68,7.68,0,0,1,.65,1.41c.11.32.22.67.33,1s.21.72.31,1.08l.32,1.14a3.35,3.35,0,0,0,.25.73.19.19,0,0,1,0,.23.25.25,0,0,1-.23.11H8.16A.27.27,0,0,1,7.92,93,8.06,8.06,0,0,1,7.48,92c-.19-.52-.4-1.24-.64-2.17a4.55,4.55,0,0,0-.33-.92,1.49,1.49,0,0,0-.42-.54,1.29,1.29,0,0,0-.55-.27A3.32,3.32,0,0,0,4.79,88H4.35V92.9a.23.23,0,0,1-.26.26H.26A.23.23,0,0,1,0,92.9Zm4.35,5.56h.89a3,3,0,0,0,1.61-.38,1.2,1.2,0,0,0,.58-1,1.13,1.13,0,0,0-.49-1A2.4,2.4,0,0,0,5.58,82H4.79a1.78,1.78,0,0,0-.44,0Z"/><path class="cls-5" d="M24,87.41c0,.17-.07.25-.23.25H18.36v1.88h6.05a.2.2,0,0,1,.23.23V92.9c0,.18-.07.26-.23.26H14.21c-.16,0-.24-.08-.24-.26V79c0-.17.08-.26.24-.26h9.88a.23.23,0,0,1,.26.26v3.13c0,.16-.09.23-.26.23H18.36V84h5.39c.16,0,.23.08.23.24Z"/><path class="cls-5" d="M26.73,79.21a.23.23,0,0,1,.21-.24c.54-.08,1.22-.16,2-.22s1.85-.1,3.1-.1a10.54,10.54,0,0,1,2.75.32,6.37,6.37,0,0,1,1.89.84A4.64,4.64,0,0,1,38,81.31a4.33,4.33,0,0,1,.53,2.14,5.39,5.39,0,0,1-.37,2A4,4,0,0,1,37.08,87a6.35,6.35,0,0,1-2.25,1.18,10.46,10.46,0,0,1-2.94.39h-.43l-.38,0V92.9c0,.18-.08.26-.24.26H27a.23.23,0,0,1-.26-.26Zm4.35,5.92.32,0h.44a3,3,0,0,0,1.69-.43,1.42,1.42,0,0,0,.66-1.25,1.24,1.24,0,0,0-.52-1A2.6,2.6,0,0,0,32.12,82H31.5a2.3,2.3,0,0,0-.42,0Z"/><path class="cls-5" d="M44.36,92.85A7,7,0,0,1,42,91.31,6.82,6.82,0,0,1,40.46,89a7.94,7.94,0,0,1-.52-2.9,8.09,8.09,0,0,1,.56-3,7.1,7.1,0,0,1,1.59-2.38,7.2,7.2,0,0,1,2.47-1.57,9.68,9.68,0,0,1,6.46,0,6.87,6.87,0,0,1,2.43,1.54A6.39,6.39,0,0,1,55,83a8.39,8.39,0,0,1,0,6,6.93,6.93,0,0,1-1.58,2.38,7.52,7.52,0,0,1-2.51,1.56,9.07,9.07,0,0,1-3.3.57A8.42,8.42,0,0,1,44.36,92.85ZM49,89.6a2.9,2.9,0,0,0,1-.82,3.65,3.65,0,0,0,.62-1.23A5.48,5.48,0,0,0,50.84,86a5.27,5.27,0,0,0-.22-1.57A4,4,0,0,0,50,83.17a2.93,2.93,0,0,0-1-.83,3,3,0,0,0-2.62,0,2.93,2.93,0,0,0-1,.83,4,4,0,0,0-.63,1.26A5.27,5.27,0,0,0,44.54,86a5.14,5.14,0,0,0,.22,1.55,3.86,3.86,0,0,0,.63,1.23,2.9,2.9,0,0,0,1,.82,3.05,3.05,0,0,0,2.64,0Z"/><path class="cls-5" d="M57.64,79.21a.23.23,0,0,1,.21-.24c.54-.08,1.23-.16,2.08-.22s1.8-.1,2.86-.1a14.2,14.2,0,0,1,3,.28,5.6,5.6,0,0,1,2,.88A3.65,3.65,0,0,1,69,81.13,4.11,4.11,0,0,1,69.42,83a3.37,3.37,0,0,1-.22,1.2A4,4,0,0,1,68,86a3.57,3.57,0,0,1-.78.49,3,3,0,0,1,.93,1,8.4,8.4,0,0,1,.65,1.41c.11.32.22.67.33,1l.3,1.08c.12.39.22.78.32,1.14a3.2,3.2,0,0,0,.26.73.24.24,0,0,1,0,.23.25.25,0,0,1-.23.11H65.79a.27.27,0,0,1-.23-.13A9.28,9.28,0,0,1,65.11,92c-.18-.52-.39-1.24-.64-2.17a3.59,3.59,0,0,0-.33-.92,1.48,1.48,0,0,0-.41-.54,1.35,1.35,0,0,0-.55-.27,3.38,3.38,0,0,0-.75-.08H62V92.9c0,.18-.08.26-.25.26H57.89c-.17,0-.25-.08-.25-.26ZM62,84.77h.9a2.93,2.93,0,0,0,1.6-.38,1.19,1.19,0,0,0,.59-1,1.13,1.13,0,0,0-.49-1A2.42,2.42,0,0,0,63.22,82h-.79A1.87,1.87,0,0,0,62,82Z"/><path class="cls-5" d="M74.72,82.45H71a.21.21,0,0,1-.23-.24V79c0-.17.08-.26.23-.26H82.84c.17,0,.25.09.25.26v3.17c0,.16-.08.24-.25.24H79.11V92.9a.23.23,0,0,1-.26.26H75c-.15,0-.23-.08-.23-.26Z"/><path class="cls-5" d="M85.3,89a.35.35,0,0,1,.14-.19.2.2,0,0,1,.21,0,11,11,0,0,0,1.7.63,7.73,7.73,0,0,0,2.19.3c1.14,0,1.71-.28,1.71-.85,0-.41-.71-.82-2.13-1.21A11.08,11.08,0,0,1,87.4,87a6.73,6.73,0,0,1-1.45-1,4.54,4.54,0,0,1-1-1.28,3.68,3.68,0,0,1-.36-1.66A3.93,3.93,0,0,1,85,81.31a4.24,4.24,0,0,1,1.22-1.46,6.12,6.12,0,0,1,1.93-1,8.68,8.68,0,0,1,2.54-.34,12.75,12.75,0,0,1,2.5.21,8.84,8.84,0,0,1,1.84.58.22.22,0,0,1,.15.3l-.89,3a.23.23,0,0,1-.35.17,13,13,0,0,0-1.33-.46,7.28,7.28,0,0,0-2-.24,2.91,2.91,0,0,0-1.15.18.57.57,0,0,0-.4.54c0,.29.2.51.61.67s1.05.38,1.92.65a7.07,7.07,0,0,1,3.12,1.75,3.84,3.84,0,0,1,1,2.75,4.36,4.36,0,0,1-.37,1.77A4.26,4.26,0,0,1,94.23,92a5.92,5.92,0,0,1-2,1,9.9,9.9,0,0,1-3,.4,10.7,10.7,0,0,1-1.39-.09,12.34,12.34,0,0,1-1.29-.23c-.4-.1-.77-.21-1.09-.32a8.21,8.21,0,0,1-.83-.34.33.33,0,0,1-.13-.13.17.17,0,0,1,0-.15Z"/></g></g></g></svg>