<svg xmlns="http://www.w3.org/2000/svg" viewBox="0 0 558.54 318.44"><defs><style>.cls-1{fill:#eb5b75;}.cls-2{fill:#f7c77a;}.cls-3{fill:#24bbe4;}.cls-4{fill:#048c47;}.cls-5{fill:#272627;}.cls-6{fill:#ef791c;}.cls-7{fill:#41a63b;}.cls-8{fill:#ee7676;}.cls-9{fill:#e2e02f;}.cls-10{fill:#fbc066;}.cls-11{fill:#78b835;}.cls-12{fill:#262c38;}.cls-13{fill:#087cb4;}.cls-14{fill:#a6c832;}.cls-15{fill:#0491c5;}.cls-16{fill:#272c38;}.cls-17{fill:#065a99;}.cls-18{fill:#c8d531;}.cls-19{fill:#f59f3d;}.cls-20{fill:#ed686a;}.cls-21{fill:#079bcc;}.cls-22{fill:#262c37;}.cls-23{fill:#353334;}.cls-24{fill:#ea595b;}.cls-25{fill:#272e3b;}.cls-26{fill:#13aad8;}.cls-27{fill:#22396e;}.cls-28{fill:#ea5254;}.cls-29{fill:#232954;}.cls-30{fill:#114785;}.cls-31{fill:#046faa;}.cls-32{fill:#292f3b;}.cls-33{fill:#0ca0d1;}.cls-34{fill:#085090;}.cls-35{fill:#262d39;}.cls-36{fill:#282728;}.cls-37{fill:#272e39;}.cls-38{fill:#352620;}.cls-39{fill:#292f3c;}.cls-40{fill:#0a0e08;}.cls-41{fill:#2a292a;}.cls-42{fill:#badee7;}.cls-43{fill:#bbdee1;}.cls-44{fill:#313131;}.cls-45{fill:#c9e4e9;}.cls-46{fill:#bddfe5;}.cls-47{fill:#1d160f;}.cls-48{fill:#1f1912;}.cls-49{fill:#e8bb8f;}.cls-50{fill:#e8c69d;}.cls-51{fill:#e8bc8b;}.cls-52{fill:#f08cac;}.cls-53{fill:#ec6680;}.cls-54{fill:#ee7996;}.cls-55{fill:#ee7997;}.cls-56{fill:#f7c57a;}.cls-57{fill:#fbfcfd;}.cls-58{fill:#fbfbfb;}.cls-59{fill:#faf8f8;}.cls-60{fill:#11addb;}.cls-61{fill:#14addc;}.cls-62{fill:#fbfcfb;}.cls-63{fill:#f3f8fa;}.cls-64{fill:#04121b;}.cls-65{fill:#f3f8f7;}.cls-66{fill:#fdfdfd;}.cls-67{fill:#ee7a98;}.cls-68{fill:#056ea9;}.cls-69{fill:#fcf9f4;}.cls-70{fill:#fdfaf6;}.cls-71{fill:#e5db26;}.cls-72{fill:#220c0a;}.cls-73{fill:#240e0c;}.cls-74{fill:#692c2a;}.cls-75{fill:#0a0b07;}.cls-76{fill:#0b0d07;}.cls-77{fill:#10120a;}.cls-78{fill:#12140a;}.cls-79{fill:#f8f4e9;}.cls-80{fill:#2d2820;}.cls-81{fill:#fefcf8;}.cls-82{fill:#448ecc;}.cls-83{fill:#82b4d1;}.cls-84{fill:#0d150a;}.cls-85{fill:#dfbe9d;}.cls-86{fill:#2b3542;}.cls-87{fill:#fafbfb;}.cls-88{fill:#36bde8;}.cls-89{fill:#07475e;}.cls-90{fill:#36bde7;}.cls-91{fill:#4fa7ad;}.cls-92{fill:#4b1c17;}.cls-93{fill:#641f1a;}.cls-94{fill:#f8f7f7;}.cls-95{fill:#be7d3d;}.cls-96{fill:#ec661b;}.cls-97{fill:#d37528;}.cls-98{fill:#918c68;}.cls-99{fill:#f7f9f9;}.cls-100{fill:#f7f6f7;}.cls-101{fill:#2a303d;}.cls-102{fill:#f6f6f6;}.cls-103{fill:#fefefe;}.cls-104{fill:#fcfcfd;}.cls-105{fill:#fcfdfe;}.cls-106{fill:#e5de16;}.cls-107{fill:#191b0b;}.cls-108{fill:#292829;}.cls-109{fill:#272d39;}.cls-110{fill:#262c35;}.cls-111{fill:#10374f;}.cls-112{fill:#18405e;}.cls-113{fill:#a28959;}.cls-114{fill:#b48249;}.cls-115{fill:#66a194;}.cls-116{fill:#869475;}.cls-117{fill:#3bb4c1;}.cls-118{fill:#34b5c7;}.cls-119{fill:#e0e164;}.cls-120{fill:#4c8b61;}.cls-121{fill:#55a7a6;}.cls-122{fill:#928e68;}.cls-123{fill:#08475f;}.cls-124{fill:#262c39;}.cls-125{fill:#15465b;}.cls-126{fill:#12475b;}.cls-127{fill:#0f120b;}.cls-128{fill:#fff;}.cls-129{fill:#48482e;}</style></defs><title>Recurso 3</title><g id="Capa_2" data-name="Capa 2"><g id="Capa_1-2" data-name="Capa 1"><path class="cls-1" d="M0,183.16c2.92-2.48,5.43-5.41,8.67-7.56A43.94,43.94,0,0,1,21,169.86c7.3-2.1,11.09-7.55,13.19-14.46.4-1.32-.11-1.83-1.51-1.65-2.46.33-4.58,1.65-6.91,2.3-4.86,1.35-8.52-1-9.63-5.91a35.35,35.35,0,0,1-.31-11.29c1.17-11.94,4.47-23.36,8.81-34.5a96,96,0,0,1,7.76-16.08c1.41-1.3,2.23-3.06,3.53-4.45.52-.56,1.07-1.36,2-.78.72.48.51,1.31.22,2a5.56,5.56,0,0,0,.11,4.78c.55,1.33-.1,2.81-.09,4.23,0,5-.06,10.11,0,15.17a9.21,9.21,0,0,1-2,6.39,3.89,3.89,0,0,0-1,4.12,4.14,4.14,0,0,1-.77,3.59c-1,1.68-.82,2,1,2,2.76,0,2.94.68,2.24,3.26-.78,2.89-3.12,4.71-4.24,7.29-.06.31,0-.08,0,.23-.34,2-2.2,4.18.93,5.62,1.88.87,3.54,2.36,5.89,1.67a2.85,2.85,0,0,1,2.49.31c.76,1.31-.13,2.58-.12,3.88,0,5.4,2.45,9.42,6.7,12.56,1,.76,2.46,1.13,2.94,2.55-3.74,1.15-7.35,2.45-8.46,6.86a4.15,4.15,0,0,0,0,2.1c1.52,5.4,2.08,11,3,16.47a20.78,20.78,0,0,1-1,10.71c-1,2.55-2.31,3-4.84,2l-25.58-11c-4.84-2.06-9.69-4.08-14.54-6.1a3.15,3.15,0,0,0-.92-.07Z"/><path class="cls-2" d="M224.21,69a41,41,0,0,0,9.5-8.31,74.84,74.84,0,0,0,13.57-20.18c5-11.43,6.44-23.07,1.61-35-.79-2-3-3.14-2.9-5.53h1c5.11,7,6.57,14.91,6.08,23.28a51.55,51.55,0,0,1-6.5,21.47A83.48,83.48,0,0,1,226,69.64C225.2,69.89,224.49,70.08,224.21,69Z"/><path class="cls-3" d="M356.59,66.06c5.88,1.06,11.7,2.66,17.76,2.27a151.81,151.81,0,0,0,22.47-3c7.37-1.61,14.73-3.41,21.93-5.66,8.45-2.64,16.88-5.44,25.11-8.77a44,44,0,0,1,8-2.54c-3.59,1.59-7.18,3.17-10.76,4.78-16.69,7.51-33.78,14.25-50,22.81-5.15,2.7-10.25,5.5-14.42,9.68-.05.06-.12.1-.17.16-1.27,1.39-3.28,2.93-2.48,4.69.59,1.3,3,.39,4.62.33a160.81,160.81,0,0,0,18.85-1.59c1.69-.26,3.38-.58,5.49-.94a39.91,39.91,0,0,1-11.55,12.37c-3,2.17-6.44,3.57-9.67,5.35-5,2.78-8.28,7.47-12.59,11-3.91,3.21-7.94,5.9-13.16,6.87-9.22,1.72-17.71,11.35-18.87,20.71-1,1.17-2.52.76-3.75,1a30.87,30.87,0,0,0-9.58,3.17,2.56,2.56,0,0,1-2.4.19c-8.09-3.09-16.05-2.4-23.83,1.12-2.75,1.24-2.73,1.37-4.82-.88a19.63,19.63,0,0,0-3.53-2.76c-.25-2.3,1.38-2.84,3.09-3.31.48.17.88,1.08,1.49.07.6-.82,1.16-1.68,1.68-2.56.68-2.57,1.28-5.16,3.12-7.23.52-.58,0-1.41.5-2a4.16,4.16,0,0,1,1.55-.65c1-.31.86-1.44,1.48-2,.79-.73,1.2-2.18,2.76-1.53a2.67,2.67,0,0,1,.72,1.9c-.18,1.22-1.27,1.74-2,2.57-.5.6-1.13,1.11-1.07,2s.17,1.59,1.39.95a11.79,11.79,0,0,0,3.1-2.08c1.66-1.67,3.2-3.49,5.31-4.65.41-.22.88-.48.78-1s-.7-.74-1.24-.91c-2-.64-3.33.82-4.91,1.53-.72-.39-1.68.41-2.31-.48-.79-2.06,1.52-2.83,1.84-4.44.39-.49.95-.47,1.5-.51.88,0,1.39-.37.9-1.34-.69-1.36.17-1.65,1.23-1.82,4.1-.16,7.6-1.56,9.95-5.06.88-1.32,1.33-2.87.08-4.35a1.21,1.21,0,0,1-.05-1.7,1.24,1.24,0,0,1,.22-.18c2.3-1.29,3-3.78,4.54-5.65.69-.84,1.26-1.89,2.62-1.71,1,.22,1.31,1.06,1.73,1.81,4.21,7.65,7.11,10.54,13.93,14.22-7.1-3.27-11.47-9.92-14.87-17.42a2.48,2.48,0,0,1-.3-1.6c.78-1.08,1.21-2.71,2.2-3.3,3.68-2.13,4.95-6.19,7.72-9a69.73,69.73,0,0,0,7.78-9.2c2-3,5.08-5.24,6.33-8.79a1.42,1.42,0,0,1,1.76-.85A6.2,6.2,0,0,0,356.59,66.06Z"/><path class="cls-4" d="M418.87,169.33a61.93,61.93,0,0,0,9.86,3c3.53-.09,6.77,1.37,10.18,1.93a80.69,80.69,0,0,0,8.19,1.16,6.44,6.44,0,0,0,5.84-3,17,17,0,0,0,2.84-6.46c.17-.77.43-1.76,1.32-1.76s1.13,1,1.3,1.77c.76,3.39,1.6,6.77,1.46,10.28a12.19,12.19,0,0,1-.53,4.2,5.88,5.88,0,0,0,1.08,5.76c3.43,4.57,7.76,7.77,13.46,8.91,2.26.66,4.54.14,6.81.12,1.58,0,2.11-1,2.11-2.53,0-4.25-.08-8.49,0-12.74a63,63,0,0,1,1.93-14.66c.26-1,.44-2,1.47-2.58,1.55-4,3.8-7.53,7.52-9.93a6.51,6.51,0,0,1,2.57-1.05c.26.33.47.81.24,1.09-1.8,2.18-.63,4.66-.75,7-.37,7.46.74,14.92-.08,22.41-.55,5-.12,10.09-.16,15.13v12.3c0,2.57-.16,5.06,3.05,5.89-5.26.6-10.79,1.57-15.64-.61a62.8,62.8,0,0,0-13.18-4.26,15,15,0,0,1-5.79-2.89c-2.73-1-4.45-3.19-6.17-5.33a44.38,44.38,0,0,1-8.9-19.34,2.79,2.79,0,0,0-2.53-2.51q-8.53-1.9-16.89-4.52a3.35,3.35,0,0,1-2-1.13l-8.61-3.33c-2.15,0-3.55-1.52-5.23-2.48a.94.94,0,0,1-.51-1,.89.89,0,0,1,1.13-.56h0C415.87,168.05,417.58,168.13,418.87,169.33Z"/><path class="cls-5" d="M289.23,146a12.57,12.57,0,0,1,5,4c.49.76.75.85,1.6.38,7.05-3.88,14.72-5.32,22.35-3.07,3.74,1.1,6.37.46,9.51-.93s6.26-1.47,9.47-1.88c3.74.19,7.52.17,11.1,1.56,3.33,1.29,6.42,2.9,8.53,5.94.41.59.74,1.07,1.65.37C366,146.55,375,146.39,384,147a1.79,1.79,0,0,0,.46-.09,4.39,4.39,0,0,1,2.77-.24,6.15,6.15,0,0,0,5.72-1.23,25,25,0,0,1,4.52-2.07c2.23-.5,4.44-1.13,6.7-1.43a4,4,0,0,0,3.19-2.08c2.29-3.77,4.63-7.51,6.84-11.33,1.51-2.69,3.13-5.31,4.74-7.94.39-.65.85-1.72,1.68-1.32,1,.48.43,1.55.07,2.31-2.91,6-6,12-9.25,17.89-1.23,2.18-1.24,2.13,1.23,2.41a29.58,29.58,0,0,1,9.92,3.06,2.89,2.89,0,0,1,1.32,1.31l.83.83c1.47,1.43,2.64,1.48,4.52.13,6.12-4.41,13.23-6.6,20.54-8.08,16.65-3.37,30.76,2.77,44,12a3.2,3.2,0,0,1,.55.72c-1.4.46-2-.63-2.77-1.16-9-6.23-18.83-10.66-29.7-11.42a50.55,50.55,0,0,0-33.8,10c-.9.65-1.37.67-2.16-.06-9.11-8.49-26.48-7-34.05-1-1.33,1-2.59.52-3.81.3a50.48,50.48,0,0,0-18.86.23c-4,.79-7.78,2.12-10.72,5.14-.62.64-1.07.8-1.67,0-5.81-8-14.14-8.7-23-7.74a24.74,24.74,0,0,0-10.44,3.53,1.86,1.86,0,0,1-1.93,0c-8.72-3.66-17.14-2.48-25.24,1.86-1.48.79-1.86.62-2.81-.68-3.31-4.59-8.23-5.44-13.49-5.24-.71,0-1.42.12-2.12.16-.12,0-.24-.14-.38-.23-.08-.87.69-1.19,1.14-1.67,15-15.68,11.9-38.17-6.76-49.19-9.61-5.68-20.19-7.92-31.17-8.65-30.64-2-56.57,9.07-79.39,28.61-17.24,14.77-30.79,32.55-41.94,52.22-.23.41-.41.86-.68,1.25s-.43,1.37-1.14,1.38-.79-.91-1-1.44c-2.66-6.31-5.24-12.65-7.94-18.95a2.68,2.68,0,0,1,.4-3.13c4.2-5.56,6.64-11.67,3.59-18.51s-9.08-10.49-16.32-10.9c-14.17-.8-27.71,1.79-39.65,10.06-6.4,4.44-11.29,10.07-12.91,18-1.33,6.57,1,11.58,6.36,15.38a16.63,16.63,0,0,0,7.27,3.28c2.31.33,3.29,1.5,4.12,3.54,6.88,16.91,13.67,33.87,21,50.61,2,4.51,2,7.34-1.37,11.36-7.26,8.61-5,20.64,4.07,25.79a19,19,0,0,0,9.36,2.17c10.75.16,21.53.69,32.23-.87,5.88-.85,11.66-2.11,16.61-5.69,2.39-1.72,4.18-3.86,4.56-6.9.2-1.69,1.06-1.25,2.14-.87,9.56,3.36,19.25,4.25,29,1.13,2.72-.86,5.15-2.43,7.71.63,1.16,1.39,3.46,1.38,5.35,1.55,1.22.11,1.42.39.87,1.58a68.68,68.68,0,0,0-5.85,22.55c-1.31,14.64,4.21,26.4,15.74,35.32,9.31,7.19,20.13,10.58,31.7,11.95,5,.6,10.11.34,15.16.4,1.18-.09,2.44-.77,3.45.46-18.81,1.92-36.54-.92-51.78-12.86-11.09-8.68-16.27-20.34-15.23-34.54a73.31,73.31,0,0,1,5.35-22.3c.55-1.34.48-1.8-1.06-1.91a9.6,9.6,0,0,1-6.1-2.72,1.5,1.5,0,0,0-1.85-.45c-11.12,4.7-22.24,3.8-33.44-.13-2.18,8.82-9.55,10.91-16.91,12.74a74.06,74.06,0,0,1-19,2c-7.27-.11-14.54.3-21.82-.4A16.92,16.92,0,0,1,76,238.86c.05-.55.13-1.1.23-1.64a22.24,22.24,0,0,1,5.92-11.55c1-1.08,1.88-2,1.09-3.9Q71.72,194.4,60.48,167c-.7-1.7-1.48-2.69-3.48-2.86a21.33,21.33,0,0,1-4.68-1.45c-2.94-1.91-5.87-3.82-7.83-6.89-2.38-3.75-2.47-7.8-1.84-12-.47-2.3,1-4.08,1.61-6.09a39.94,39.94,0,0,1,14.17-14.41,60.27,60.27,0,0,1,19.24-7.16c3-.63,6.09-.84,9.14-1.32a51.18,51.18,0,0,1,11.27.19c.91.15,1.91.17,2.48,1.11,4.32,1.66,8.26,3.9,11,7.7,4.61,6.28,4.14,14.74-1.38,21.94a3.25,3.25,0,0,0-.48,3.79c2.59,6,5.11,12,7.7,18.17,3.07-5,5.93-9.94,9-14.72a181.11,181.11,0,0,1,20.91-26.71,5.2,5.2,0,0,0,1.38-1.9c3.5-4.4,7.84-8,12-11.69a1.53,1.53,0,0,1,1.08-.4c4.38-3,8.48-6.46,13-9.39,13.79-9,28.71-15.29,45.09-17.27,16.54-2,32.91-1.19,48.41,6,1.39.65,2.55,1.85,4.23,1.84,3.12,1.34,5.47,3.7,7.92,5.92,2,1.87,3.34,4.29,5,6.46,2.13,3.16,2.83,6.85,3.82,10.44a80.51,80.51,0,0,1,.14,8.51c-.63,7-3.85,12.92-8.16,18.31,0,.65,0,.65,1.47.64a5,5,0,0,1,.67,0C285.31,144.59,287.72,144.16,289.23,146Z"/><path class="cls-6" d="M161.86,112.25l-13.09,12.1a71.78,71.78,0,0,1-.1-12.78,6.75,6.75,0,0,0-1.82-5.13,74.53,74.53,0,0,1-7.46-9.94c-4.54-7.47-4.45-15.43-2.26-23.5a23.72,23.72,0,0,1,10.39-14.54c3.1-1.92,6.6-2.67,10.07-3.52,1.5-.38,2.26.18,2.22,1.75-.56,1-1.6.72-2.47.86-.52.08-1.47.15-1.18.72.79,1.58.41,3.75,2.37,4.73,1.48.36,1.79,1.53,1.69,2.75-.3,3.45-.49,6.91-.47,10.38,0,1.44-1,2-2.09,2.55-.92,1.84-3.09,2.8-3.62,4.86-1,4.14-1.84,8-.58,12.6a54.74,54.74,0,0,0,5.2,12.08A21.81,21.81,0,0,0,161.86,112.25Z"/><path class="cls-7" d="M498.58,215.59c-3.74-.45-3.74-.45-3.74-4.46,0-6.23-.06-12.46,0-18.68.1-7.47.52-14.95.38-22.41-.08-4.5-.23-9-.07-13.48a2,2,0,0,0-.43-1.09c-.6-.85-1.22-1.59.53-1.82,1-.14,1-1.09,1-1.88,1.47-1.91,1.21-4.34,1.93-6.48,1.52-4.46,3.34-8.75,7.46-11.54,1.3-.41,1.46.57,1.65,1.41a12.86,12.86,0,0,1,.14,2.84v71.41c0,1.4.26,2.87-.76,4.1A27.64,27.64,0,0,1,498.58,215.59Z"/><path class="cls-8" d="M423.88,146.17a29.06,29.06,0,0,0-14.7-3.89c4.11-7.7,8.28-15,11.21-23.06l-5.69,9.53c-2.06-.83-2.7-2.48-2.71-4.54v-13.5c0-1.52.2-3.27-2.32-2.12a1.48,1.48,0,0,1-1.74-.42c4.2-3.41,8.74-6.15,14.12-7.3a13.25,13.25,0,0,1,2.81-.27c3.15,0,3.8.75,3.49,3.82a2.43,2.43,0,0,1-.08.47c-.38,1.11-.44,2.59.42,3s1.62-1,2.33-1.63c1.4-1.31,2.45-3,4.28-4.29.23,3.32.58,6.35.61,9.39,0,2.88,1.19,5.76.07,8.65-.45,1.17-.78,2.39-1.29,3.53-1.73,3.82-1.5,5.48,1.48,8.42,1.22,1.21,2.57,2.29,4,3.52-2.45,1.42-4.84,2.78-5.57,5.78-.22.89-1.23.54-1.88.51a12.23,12.23,0,0,0-6,1A4.83,4.83,0,0,0,423.88,146.17Z"/><path class="cls-9" d="M530.88,119.4c1.65-1.76,3.26-2.32,5.13-.17.92,1.07,2.14,1.42,3-.24.6-1.09.92-.48,1.45.17a30.1,30.1,0,0,1,5.59,11.73c2.47,9.37,1.59,18.76,0,28.13-.25,1.46-1.38,2.91-.9,4.32s2.37,1.34,3.54,2.13a40.07,40.07,0,0,1,9.85,8.88c-2.86.58-5.41-.38-7.87-1a17.61,17.61,0,0,1-5.87-2.86c-1.81-1.28-2.49-.48-3.18,1-1.5,3.27-2.89,6.59-4.53,9.79-1.73,3.39-3.7,6.66-5.56,10-1.33.15-1.52-.77-1.55-1.75a20.72,20.72,0,0,1,.39-4.16,2.17,2.17,0,0,1,.19-.66c1.22-2.15,2-4.27-.41-6.19-.11-2.17-.91-4.37.31-6.47a8.05,8.05,0,0,0,.32-8c-.58-.81-1.11-1.64-.58-2.68a5.31,5.31,0,0,0,2.22-3.63,2.38,2.38,0,0,0-1.41-3,3.58,3.58,0,0,1-1.1-3c.54-9.47.1-18.94.25-28.41C530.21,122,530,120.59,530.88,119.4Z"/><path class="cls-10" d="M177.12,55.13A28.78,28.78,0,0,1,187,59.78c1.11.82,2,1.23,3.52.25,1.8-1.16,4-.83,6.18-.31a82.87,82.87,0,0,1,21.86,8.43,17,17,0,0,1,1.86,1.43c.73.8,2.41-.55,2.71,1.2.22.37.45.75.08,1.17a3,3,0,0,1-1.11,1.53A3.47,3.47,0,0,0,218.87,75c-2.07,1.06-4.43,1-6.59,1.74-.57.2-1.32.12-1.4,1-.41,4.16-3.55,5.2-6.87,5.92-6.44,1.41-12.8.51-19.16-.77a20.1,20.1,0,0,1-7.73-3.13,83.5,83.5,0,0,0,.23-13.23c0-1.59-1.43-1.2-2.09-1.84.2-1.82,1.73-1.52,2.84-1.63,2.33-.23,4.68,0,7.46-.18-2.72-1.76-5.74-1.79-8-3.51A6.5,6.5,0,0,0,177.12,55.13Z"/><path class="cls-11" d="M506.71,213.51v-77c0-1,.65-2.32-1-2.76,2.75-2.9,6.37-4.28,10-5.7,1.41.08,1.52,1.21,1.65,2.19a21.08,21.08,0,0,1,.17,4.49c-1.15,13.55-.4,27.13-.43,40.69,0,5.58.47,11.16,0,16.76-.39,4.47.27,9,.11,13.45,0,1.06.06,2.06-.91,2.76A30.71,30.71,0,0,1,506.71,213.51Z"/><path class="cls-12" d="M108.61,249c-4.66-.18-10.6.32-16.52-.28-2.13-.22-4.17-.67-5.11-2.82a6.05,6.05,0,0,1,1.1-6.43,6.79,6.79,0,0,1,.94-1.06c4.93-4,4.85-9,2.79-14.37L70.47,168.45c-1-2.57-2.08-5.11-2.93-7.73a4.74,4.74,0,0,0-3.93-3.51A11.3,11.3,0,0,1,54.52,145a8.45,8.45,0,0,1,4.17-6.31c8.72-5.3,17.72-10,27.94-11.74,6-1,11.25,1.56,13.3,6.28a7.42,7.42,0,0,1-.26,7,21.19,21.19,0,0,1-4.13,5.46c-1.77,1.58-1.8,3.2-1.11,5.28,4.74,14.18,9.39,28.38,14.08,42.58,1.11,3.37,2.18,6.74,3.35,10.08.23.66.08,1.91,1.13,1.78.84-.1.76-1.26.91-2A110.18,110.18,0,0,1,118.59,187c7.61-20.52,19.81-38,35.55-53a134.11,134.11,0,0,1,46.23-29.4C216,99,232,96.43,248.51,98.24a40.87,40.87,0,0,1,14.7,4.22c8.77,4.62,12.51,12.13,12.41,21.76-.09,9.18-4.24,16.07-12.27,20.42-8.76,4.73-18.31,5.06-27.94,4.23-3.14-.26-3.66-1.91-1.77-4.46,6.44-8.71,2.44-19.63-8-21.8a33.25,33.25,0,0,0-5.89-.61c-10.37-.29-19.66,3.24-28.47,8.29-11.37,6.52-20.94,15.24-29.57,25a157.94,157.94,0,0,0-26.11,39.57c-3.82,8.43-6.94,17.09-6.87,26.56a20.2,20.2,0,0,0,4.44,13.18,12.36,12.36,0,0,1,2.36,4.06c1.24,3.9-.05,6.89-3.77,8.54s-8,1.62-12.11,1.76C116.38,249.08,113.13,249,108.61,249Z"/><path class="cls-13" d="M288.68,115.87c-1.07-3.41-2-6.87-3.76-10a20,20,0,0,1,3.32-5.64c3.24-4,6.69-7.76,10-11.7a24.68,24.68,0,0,0,4.5-7.58,3,3,0,0,1,1.45-1.75c2.3-1.57,3.57-4.11,5.64-5.88A6,6,0,0,0,312.44,71c2.65-4,6.35-7.13,9-11.19,1.17-1.81,2.6-4,5.29-4.21a28,28,0,0,1,4.83,4.14c.44,1.9.84,3.79-1.64,4.68-1.8,4-5.67,6.3-8.18,9.75s-5,6.89-7.79,10.14c-5.32,6.25-10.66,12.49-15.74,18.94C295,107.38,291.36,111.29,288.68,115.87Z"/><path class="cls-14" d="M516.23,208.39c.73-1.14-.09-2.33,0-3.41.67-5-.65-10,.26-15,.49-2.65.06-5.49,0-8.24,0-2.41-.35-4.8-.35-7.2V139.71c0-2.9.93-5.73.51-8.67-.15-1.1-.06-2.21-1.06-3l7.59-4.25c1.31-.48,1.45.53,1.65,1.35A12.77,12.77,0,0,1,525,128c0,9.23-.23,18.46.08,27.68.23,6.93-.12,13.84.13,20.78.17,4.95.41,10.08-.78,15a1.46,1.46,0,0,1-1.24.95c-.75.09-.91.55-.66,1.18.91,2.3,0,4.16-1.36,5.93s-1.89,3.45-.79,5.47A18.09,18.09,0,0,1,516.23,208.39Z"/><path class="cls-15" d="M288.68,115.87c0-3.2,2.73-4.77,4.37-6.91,5-6.48,10-12.94,15.38-19.06,6-6.85,11.13-14.44,17.25-21.21.7-.77,1.17-1.93,2.53-1.91.22,0,.69-.46.65-.58-.62-2,.49-2.59,2.13-3,.56-.14.54-.92.26-1.45a1.94,1.94,0,0,1,.27-2c.29.18.57.37.85.56.62.86,1.07,1.93,2.41,1.87,1.39.72,2.48,2.07,4.25,2C333.8,71,328.44,77.76,323,84.46s-11.4,13.1-16.37,20.24a23.08,23.08,0,0,1-4.91,5.43,4.21,4.21,0,0,0-1.11,1.23c-1.83,3.06-4.32,5.62-6.52,8.39a16.86,16.86,0,0,0-2.62,4.19c-.46,1.12-1.14,2.19-2.68,1.36Z"/><path class="cls-16" d="M254.13,251.22a47.16,47.16,0,0,1,1.67,8.58,2.68,2.68,0,0,1-1.09,2.9c-1.19.7-2.08,0-2.94-.79-2.08-1.82-4.1-3.73-6.29-5.4a17.8,17.8,0,0,0-9.57-3.74,10.62,10.62,0,0,0-11.73,9.38c0,.29-.05.57-.06.86-.68,10.31,6.76,19.75,17.54,22.17,8,1.79,15.77.36,23.25-2.4,22.35-8.25,40.24-22.14,52.61-42.7a27.41,27.41,0,0,0,4-11.79c.08-.9.56-2.16-.24-2.67s-1.67.57-2.41,1.07A24.89,24.89,0,0,1,308.23,231c-9,1.28-15.54-2.88-18.53-11.73-2.13-6.26-2.22-12.73-1.9-19.21.5-9.79,2.49-19.25,7.15-28,3.32-6.21,7.68-11.6,15-13.2,7.08-1.55,13.84-.76,19.45,4.54.48.46,1,1.34,1.72,1s.65-1.34.71-2.11c.28-3.83.35-4,4.13-4.75a35.11,35.11,0,0,1,10.11-1c3.82.32,5,1.59,5,5.41a223.73,223.73,0,0,1-2.37,30.7A212.54,212.54,0,0,1,338.23,236c-6.64,18.31-15.86,35-30.17,48.61-13.91,13.18-30.5,20.76-49.46,23.31a35.31,35.31,0,0,1-5.89.51c-.18-1.15.83-1.08,1.45-1.42a97.88,97.88,0,0,0,28.6-7.28,85.48,85.48,0,0,0,30.43-22.54c13.33-15.39,21.41-33.44,27.15-52.72a227.24,227.24,0,0,0,7.46-36.43,180.25,180.25,0,0,0,1.61-25.75c-.05-3.25-.85-4-4-4.23s-6.44.5-9.61,1.13a2.63,2.63,0,0,0-2.28,2.4c-.08.55-.2,1.09-.31,1.63-.59,2.8-2.09,3.41-4.34,1.58-2.42-2-5-3.81-8.05-4.35-6.77-1.19-13.17-.86-18.5,4.49-4.54,4.57-7.31,10-9.36,16-3.38,9.83-4.14,20-3.34,30.2.45,5.76,2,11.42,6.87,15.42a12.86,12.86,0,0,0,11.26,2.92,31.64,31.64,0,0,0,10.89-4.45c1-.66,2.2-1.48,3.51-.61s1.06,2.23,1,3.46a31.12,31.12,0,0,1-3.8,12.13c-3.85,7.48-9.2,13.79-15.16,19.63a106.2,106.2,0,0,1-34.7,23.16c-8,3.23-16.31,5.19-25,4.3-9.38-1-17.89-7-20.84-16.58-1.62-5.25-1.61-10.31,1.85-14.89,3-4,7.59-5.3,12.43-4.29s8.69,3.62,12.26,6.82c.77.69,1.54,1.37,2.32,2,.36.32.79.67,1.27.44s.49-.9.49-1.46c0-3-1.36-5.84-1.51-8.86a1.57,1.57,0,0,1,.26-.69c.85-.57,1.35-.12,1.75.61C254.66,250.73,254.27,251,254.13,251.22Z"/><path class="cls-17" d="M280.18,99.64l-7.63-6.22a86.87,86.87,0,0,0,14.26-20.36c1.27-.47,1.25.27,1.19.89.58-2.9,3.39-4.61,5-7.13.85-1.32,2.06-2.4,2-4.17a1.31,1.31,0,0,1,1.19-1.43h.09c1.62-.17,2.48-1.24,3.25-2.48a4.91,4.91,0,0,1,.86-1.12,16.67,16.67,0,0,0,4.36-5.5,2,2,0,0,1,.79,1.87,42.49,42.49,0,0,1-5.24,23,3.78,3.78,0,0,1-.59.73c-2.76.58-3.93,3.08-5.6,4.88-4.63,5-8.2,10.92-13.11,15.7C280.58,98.63,280.58,99.25,280.18,99.64Z"/><path class="cls-18" d="M523.78,192.24c.58-2.23.41-4.52.53-6.79.32-6.59,0-13.18,0-19.76v-39.4c0-.9.54-2.17-1-2.49,2.54-1.47,4.89-3.28,7.64-4.4q0,15.14,0,30.28c0,1.76-1.28,3.77,1,5.08-.38,1.53-2,1.31-2.91,2-.61.43-1.65.47-1.61,1.46,0,.83.9,1,1.52,1.24.79.35,1.61.69,1.55,1.78a2.32,2.32,0,0,0,.92,2.47,16.5,16.5,0,0,0-3.41,3.57c-.91,1.19-.77,2.22-.45,3.68.56,2.49,2.4.7,3.37,1.43a6,6,0,0,0-.3,4.28,2.6,2.6,0,0,1-.16,2.18c-1.76.63-3.67,4.05-3.23,5.86.27,1.09.85,1.72,2.05,1,.5-.32.92-.92,1.66-.57-.13,1.38-.22,2.77-.41,4.14a1.68,1.68,0,0,0,1,2.09l-4.54,6.41C526.39,195.63,524.78,194.11,523.78,192.24Z"/><path class="cls-19" d="M177.12,55.13c.93,1.15,2.56,2.2.47,3.72-1,.89-2.76.4-3.5,2.06-.92,2.07-.91,2.54,1.1,3.57a14.91,14.91,0,0,1,2.11.1c.7.1,1.18.32,1.09,1-.48,3.72-.22,7.45-.3,11.17v1.88a1,1,0,0,1-.87,1.11h-.13a1.5,1.5,0,0,1-.69-.1c-4.39-3.24-9.3-2.87-14.26-2-1.52.26-3,.72-4.51,1.08a3.73,3.73,0,0,0,1.46-3.44,48.37,48.37,0,0,1,.45-9.62c.2-1.56-.49-2.17-2-2.09.18-1.08,1.13-1,1.82-1.07,2.7-.1,4.44-1.22,4.6-4.14-1.28-.82-3.15-.29-4.47-1.42a1.87,1.87,0,0,0-1.73-2,1.22,1.22,0,0,0-.27,0c3.2-1.39,6.61-1.18,10-1.12A42.29,42.29,0,0,1,177.12,55.13Z"/><path class="cls-20" d="M408,108.17c.82-.08,1.76.34,2.4-.54.39-.55.84-1,1.56-.71s.8,1.08.8,1.8v12.73c0,2.64-.33,5.33,2,7.3-2.52,4.13-5,8.28-7.57,12.4-.35.55-.62,1.22-1.54,1.22-2.77,0-5.36,1-8.07,1.44-.1-.13-.22-.34-.14-.42,2.89-3.08,1.54-6.95,1.77-10.45.26-3.72.53-7.53-.39-11.27-.33-1.34,1-2.35,1.36-3.59.1-.35.73-.8.43-1-2.5-1.32-.29-2.14.28-3.13C403.59,112.54,405.33,109.84,408,108.17Z"/><path class="cls-21" d="M288.82,125.27a1.75,1.75,0,0,0,2-1c1.84-5.63,6.28-9.59,10-13.69,6.77-7.54,12.54-15.87,19.38-23.36a116.87,116.87,0,0,0,9.41-11.65c1.21-1.73,2.71-3.26,4.08-4.88.55-.66,1.17-1.3,1-2.29a2.43,2.43,0,0,1,0-.66c1.92-.21,2.22-2.15,3.4-3.14a3.6,3.6,0,0,1,1.05-.44l3.83.42c.24,1.91-1.21,3-2.24,4.18C336.27,74,332,79.11,327.67,84.37c-1,1.25-.82,3-2.23,4-.27-.15-.47-.34-.22-.67-.27.18-.16.55-.39.75-3.17,2.51-5.5,5.81-7.94,9-5.33,6.84-11,13.37-16.4,20.18a31.59,31.59,0,0,1-4.74,5.2c-1.29,1.07-1.46,3-2.53,4.42a2.83,2.83,0,0,1-2.71,1.47c1.06.09,1.68-.16,2.13.35.47,1-.2,1.65-.64,2.36-1,1.53-2.13,2.92-3.05,4.48a17.11,17.11,0,0,0-4.39,6.36,5.4,5.4,0,0,1-1.54,2.06h-.46c-.51-.62-1.53-.25-2-1,3.06-4.38,6.22-8.71,7.42-14.06C288.29,127.89,288.55,126.58,288.82,125.27Z"/><path class="cls-22" d="M203.74,159a16.63,16.63,0,0,1,11.47,1.61c2,1.09,2.72,2.5,2,4.86-3.22,10-6.32,20-9.38,30a26.48,26.48,0,0,0-1.22,11c.36,3,1.71,4.88,3.84,5.41s4.25-.48,5.92-3c3.19-4.82,4.54-10.37,5.84-15.87s2.22-11.14,3.34-16.7a3,3,0,0,0-1.27-3.4c-3.08-2.42-3.93-6-2.66-9.78,1.14-3.37,3.38-4.84,7.7-5q10.78-.48,21.57-1c4.17-.17,5.06.77,4.71,5-.1,1.17-.37,2.33-.49,3.51-.06.52-.2,1.18.34,1.54.7.47,1.15-.23,1.6-.56,4.19-3.1,8.31-6.28,13-8.64,5-2.52,10.16-3.35,15.56-1.43a10.72,10.72,0,0,1,7.56,9.63c1.09,10.3-6.62,22.41-16.39,25.86-5.06,1.79-11.62-.29-11.34-7.43.07-1.8-1-2.37-2.63-1.46a14,14,0,0,0-2.83,2.13,52.77,52.77,0,0,0-15.76,29.53,7.11,7.11,0,0,0,0,1.13,103.16,103.16,0,0,1,17.26-9.13c.44-.17.76-.77,1.06-1.22.75-1.11,1.41-2.28,2.2-3.36s1.49-2.58,2.58-3c1.29-.49,1.58,1.53,2.58,2.2A10.28,10.28,0,0,0,276,203.7c1.42,0,1.93.37,1.68,2a34.13,34.13,0,0,0,.58,11.75,1,1,0,0,1-1.07.21c-1.26-.86-.68-2.32-1.13-3.45a33.8,33.8,0,0,1-.19-6.36c0-1.55-.4-2.58-2.12-2.81a9.38,9.38,0,0,1-5.14-2.73c-.88-.83-1.44-.72-2,.23-.56.76-1.08,1.55-1.56,2.36a7.1,7.1,0,0,1-5.18,4.08,15.29,15.29,0,0,0-2.8,1.26,103.79,103.79,0,0,0-13.78,8.16c-.84.59-1.72,1.84-3,.69,0-.24-.09-.57.08-.68,2.44-1.58,2.42-4.27,3-6.67a54.2,54.2,0,0,1,16.43-28.24,9.56,9.56,0,0,1,1.09-.91c3.23-2.27,5.77-1.19,6.35,2.7.65,4.41,3.64,6.63,7.74,5.69a13.31,13.31,0,0,0,4-1.53c7.83-4.68,12.08-11.65,13-20.63a10.65,10.65,0,0,0-9.37-11.43A20.89,20.89,0,0,0,270,159.9a60.68,60.68,0,0,0-8.52,5.59,37.48,37.48,0,0,1-3.31,2.29c-1,.65-2.16,1.2-3.33.49s-1.29-2.1-1.12-3.39.3-2.35.35-3.54c.07-1.87-.91-2.69-2.61-2.51-7.4.77-14.86.13-22.25.95-2.7.3-5.12,1.1-5.85,4s-.87,5.93,2,7.95c2.13,1.49,2.07,3.29,1.69,5.59a177,177,0,0,1-5,22.9c-1.06,3.46-2.21,6.93-4.42,9.91s-4.56,3.94-7.82,3.05c-2.94-.81-4-3.22-4.41-5.91-.72-4.79.18-9.44,1.65-14,2.88-9,5.74-17.91,8.44-26.92.89-3,.15-4.14-2.82-5.09a24.17,24.17,0,0,0-7.69-1.13C204.28,159.83,203.73,159.74,203.74,159Z"/><path class="cls-23" d="M253.11,317.87c-1.06-.83-2.32-.14-3.45-.46,4.76-.72,9.57-.93,14.32-1.76a99.38,99.38,0,0,0,59.85-34.1A116.42,116.42,0,0,0,347,240.1c.5-1.58.73-1.94,2.2-.72,3.11,2.57,7,3.11,11.4,1.83-.51,2-1.11,3.83-1.44,5.71-1.32,7.44,1.11,14,4.94,20.2,5.77,9.26,14.47,14.84,24.49,18.48,15.2,5.53,31,6.43,47,5.49,10.4-.62,20.52-2.66,29.88-7.42,16.23-8.24,24.95-21.67,27.14-39.59a43.63,43.63,0,0,0-4.67-26.35.73.73,0,0,1,0-1c1.1.42,1.32,1.54,1.74,2.44a45.65,45.65,0,0,1,3.43,27.62c-1.94,11.55-6.74,21.57-15.37,29.55-7.74,7.21-17.16,11.3-27.38,13.61-11.11,2.48-22.35,2.82-33.68,2.08-10.9-.72-21.55-2.47-31.64-6.81-11-4.72-19.81-11.79-24.63-23.11-2.47-5.82-3.45-11.76-1.62-17.93.38-1.3.18-1.37-1.05-1.24A12.49,12.49,0,0,1,349.8,241c-1.37-.84-1.85-1.09-2.48.8a116.28,116.28,0,0,1-33.24,51,97.93,97.93,0,0,1-44.87,22.8A93.06,93.06,0,0,1,253.11,317.87Z"/><path class="cls-24" d="M400.82,114c.33.6,0,.8-.52,1s-.46.62-.37,1c.18.77.56.35,1,.21,1-.29.88.48.66,1-.48,1-1.91,1.6-1.29,3.07-2.21.61-.53,1.87-.52,2.89,0,4.09.14,8.19-.14,12.26-.12,1.59,1.27,3.44-.54,4.84,3,2.23,0,2-1,2.61-.29.17-.38.66-.57,1l-4.19,1.92c-3.54-1.56-3.52-5.41-2.65-8.17.36-1.12.92-1.79-.87-2-1.46-.14-1.29-1.14-.48-2s1.63-1.53,1.15-3a10.82,10.82,0,0,0-2.83,1.95,1.58,1.58,0,0,1-1,.18c-.73-.85-2.29-1.07-2-2.68,2.46,1,4.12.39,4.94-2.27a8,8,0,0,1,1.35-1.91c1-1.33,1.47-2.54-.41-3.63a4.56,4.56,0,0,1-1.43-1.85c-1-1.86-2.2-3.75-1.09-6s3.29-1.25,5.06-1.51C395.74,112.52,398.13,114.31,400.82,114Z"/><path class="cls-25" d="M203.74,159l1,.48c-.26,1.21-1.34,1.24-2.22,1.4-2.91.55-4.76,2-4.85,5.19a5.79,5.79,0,0,1-.22,1.16c-.82,3.5-1.62,3.87-4.51,1.82A26.69,26.69,0,0,0,158.16,172,45.49,45.49,0,0,0,145,199c-.85,6.28-1.13,12.6,1.12,18.74,2.71,7.39,7.64,12.55,15.33,14.59a22.91,22.91,0,0,0,14-1,27.33,27.33,0,0,0,8.7-4.75c1.49-1.3,2.73-1.09,4.14.22a30,30,0,0,0,7.35,5.56,18.34,18.34,0,0,0,16.46.1c3-1.39,3.93-.59,5.34,2.34,1.95,4,.55,6.07-2.69,8.64a37.92,37.92,0,0,0-13.33,21.36c-2.29,9.63,0,18.48,5.78,26.44S221,303.87,230.53,306a63.16,63.16,0,0,0,21.41,1.06c.78-.09,1.59-.25,2.18.5-.32.54-1.2.27-1.41,1-17.39,1.69-33.65-.45-45.62-14.89-10.83-13.07-10.74-29.46-.31-43.9a39.82,39.82,0,0,1,9.26-9.42c1-.72,1.29-1.24.63-2.42a11.48,11.48,0,0,1-.95-3.4c-.26-1.36-.85-1.77-2.13-1.1-9.55,5-17.85,2.56-25.26-4.42-1.57-1.47-2.4-1.66-4.37-.32-8.54,5.86-17.73,8.33-27.6,3.38-8.49-4.25-12.45-11.76-13.24-20.8-1.26-14.46,2.52-27.54,12.28-38.56,11.62-13.13,28.9-12.49,39.44-4.1a4.57,4.57,0,0,0,.88.3C195.57,163.3,197.61,159.37,203.74,159Z"/><path class="cls-12" d="M418.83,172.21c-2,9.24-5.15,18.17-7.32,27.36-.69,2.9-1.52,5.83-.73,8.87a6.31,6.31,0,0,0,8.24,4.84c2.33-.62,4.7,1.12,5,4a23.67,23.67,0,0,1-1.38,11.87c-2.18,5.11-6.53,6.81-11.63,7.07-7.15.37-13.46-1.68-18.35-7.09-1.65-1.82-2.91-2-4.91-.48-4.33,3.22-9,5.95-14.46,6.66-9.76,1.25-18.28-3.78-22.38-13.1-3.75-8.52-3.37-17.26-.89-26,3.63-12.75,10.42-23.34,22.35-29.85,8.33-4.53,16.73-4.9,24.62,1.24,1.43,1.12,2.1.49,2.7-.74a5.65,5.65,0,0,0,.57-1.8c.37-3.53,2.62-5.25,5.79-6a23.2,23.2,0,0,1,10.58-.13c3.61.81,4.93,2.84,4,6.42-.32,1.19.13,2.91-1.64,3.47a1,1,0,0,1-.43-.61c-.16-1.3.53-2.45.63-3.71.15-1.92-.53-3.25-2.42-3.82a17.58,17.58,0,0,0-12.5.84c-1.36.59-1.81,1.87-2.25,3.18-1.92,5.65-2.63,5.82-7.75,2.77-7.66-4.54-15.28-3.4-22.47,1-11.15,6.79-17.47,17.12-20.62,29.55a39.84,39.84,0,0,0-.93,16.44c1.5,9,5.94,16,15,18.7,6.2,1.88,12.2.26,17.67-3.16,1.54-1,3-2,4.56-3,2.57-1.58,3.78-1.56,5.86.65a21.73,21.73,0,0,0,12,6.63,18.15,18.15,0,0,0,11.38-1,9.52,9.52,0,0,0,5.13-6.5,24.53,24.53,0,0,0,.52-9c-.22-2.25-1.26-3-3.49-2.89-7,.36-10.8-4-9.79-11,1-6.77,3.13-13.23,5-19.76,1.17-4.09,1.88-8.32,3.53-12.28C418.17,171.37,418.5,171.79,418.83,172.21Z"/><path class="cls-26" d="M356.59,66.06c-3.18-.29-4.31,2.08-5.95,4.19-4.79,6.19-9.89,12.15-14.86,18.22a16.26,16.26,0,0,0-3.67,6.36c-.71-.77-1.29-1.77-1.91,0-.32.93-.73,2.12-2,2.45C326.41,96,326.41,94,326,92.18c.65-3.53,3.26-5.85,5.26-8.57,4.21-5.73,9.3-10.73,13.39-16.55.92-1.32,1.9-2.23,3.7-1.85a4.81,4.81,0,0,0,2.58-.11Z"/><path class="cls-27" d="M299.26,31.22a51.09,51.09,0,0,1,11.35,8.64c-1.61,1.47-4.17,1.14-5.58,3-1.35-.37-1.72-1.65-2.42-2.55a4.4,4.4,0,0,1,.37,2.21c-1.23,2.7-3.65,4.42-5.47,6.64-.65.79-1.05,1.85-1.66,2.43-2,1.85-2.9,4.39-4.72,6.28a42.16,42.16,0,0,0-2.76-15.15c-.05-2,1.62-2.74,2.65-4,1.72-2,3.76-3.79,5.42-5.89A5.89,5.89,0,0,1,299.26,31.22Z"/><path class="cls-28" d="M384.66,130.05c.12,1.23,2.29.76,2,2.36.08,1.06-.78,1.8-.94,2.75.48-.91.63-2.09,1.74-2.63.14-1.7,2-1.73,2.8-2.94.44-.7,1,.06,1,.62.14,1.34.28,2.72-1.22,3.53-.47.25-1.15.52-.8,1.19.23.45.85.34,1.3.18s1.08-.36,1.47.23.12,1-.19,1.52c-1.7,2.81-1.4,5.18.89,7.7a4.66,4.66,0,0,1,.61,1.17c-2.64,3-5.85,1.39-8.89,1.1a39,39,0,0,1,.13-4.72c.26-2.11-.9-2.74-2.64-3.09-3.92-.8-7.87-.35-11.8-.38-.7,0-1.54.38-1.94-.36s.19-1.73.7-2.35a17.92,17.92,0,0,1,10-5.9A8.87,8.87,0,0,1,384.66,130.05Z"/><path class="cls-29" d="M299.26,31.22c-3.17,2.67-5.79,5.89-8.73,8.78a31.14,31.14,0,0,0-2.16,2.7c-3.62-8.47-9.61-14.94-17.07-20.29C281.57,22.43,290.75,25.75,299.26,31.22Z"/><path class="cls-30" d="M291.13,57.85c.46-.19.9-.55.86-1-.21-2.17.24-3.84,2.78-4.15a.53.53,0,0,0,.35-.29c.86-4,4.46-5.91,6.76-8.82a2.83,2.83,0,0,0,.68-1.45c.16,0,.39,0,.44.13,1.51,3.15,2.67,6.35,1.44,9.89,0,1.71.09,3.31-2,4.25a6.91,6.91,0,0,0-2.65,2.94c-.75,1.28-1.5,2.65-3.4,2.39a.82.82,0,0,0-1,1c.78,2.15-1.12,3-2,4.4-1.6,2.6-4.36,4.37-5.23,7.53-.74-.39-.31-1.72-1.45-1.6A64,64,0,0,0,291.13,57.85Z"/><path class="cls-31" d="M326.69,55.6a17.7,17.7,0,0,0-5.45,5.24c-3,4.51-6.79,8.34-10.21,12.48-.22.26-.5.7-.94.21s-.19-1.23.09-1.77c2.38-4.51,2.44-9.22,1.25-14a4.21,4.21,0,0,1-.14-1.41,9.24,9.24,0,0,1,1.57-2.56c1.17-1.63,3-2.7,3.82-4.65a2,2,0,0,1,1.93-1.08A99.29,99.29,0,0,1,326.69,55.6Z"/><path class="cls-32" d="M440.7,285.11c-14.61.8-29-.11-43.07-4.65-7.95-2.58-15.4-6.07-21.31-12.23-4.81-5-6.23-10.86-3.93-17.44A16.43,16.43,0,0,1,386,239.34a18.57,18.57,0,0,1,8.22.44,10.76,10.76,0,0,1,5.65,17.35c-1.65,2.07-1.24,2.92.69,4.26,5.92,4.15,12.31,6.62,19.66,6.3a84.17,84.17,0,0,0,8.69-.46c.28.32,1.15-.06,1,.82a3.79,3.79,0,0,1-3,1.08c-5,0-10.08.59-15.09-.73A35.93,35.93,0,0,1,398,261.26c-1.66-1.35-1.65-2.31.16-4.43a9.27,9.27,0,0,0,2-9.27,8.51,8.51,0,0,0-5.8-6.05c-11.43-3.67-22.28,4.75-21.29,16.7.36,4.31,2.85,7.62,5.92,10.49A44.21,44.21,0,0,0,392.42,277a83.75,83.75,0,0,0,23.8,6c8,.83,16,2.17,24.06.42a2.51,2.51,0,0,1,1.62.14C442.75,285,440.62,284.22,440.7,285.11Z"/><path class="cls-33" d="M351,65.1c-3.54-.1-5.36,2-7.53,4.61C338.51,75.53,334,81.59,329,87.32a14.21,14.21,0,0,0-2.54,4.74c-1.46-1-1.42-2.34-1.06-3.81,1.09-4.78,5-7.63,7.71-11.32,3.11-4.25,7.15-7.76,9.81-12.36C345.58,64.21,348.21,65.08,351,65.1Z"/><path class="cls-34" d="M318.61,48c-2.05,2.42-4.11,4.83-6.11,7.28-.27.32-.45.6-.86.65a.85.85,0,0,1-.56-.4,77.41,77.41,0,0,0-6.2-12,.65.65,0,0,1,.12-.85c1-2.73,3.64-2.05,5.61-2.8C313.58,42.28,316,45.3,318.61,48Z"/><path class="cls-35" d="M440.7,285.11c0-1,1-.72,1.43-1.24,1.86-1.12,4-1.15,6.06-1.64,8.29-2,15.95-5.23,21.95-11.47A38.1,38.1,0,0,0,481,245.3c.61-12.52-4-22.39-13.24-30.5a60.47,60.47,0,0,1-8-8c-.56-.74-1.36-1.36-1.25-2.45.2-.49.58-.53.91-.21,1.22,1.18,2.64,2.18,3.47,3.72,3.42,3.38,6.89,6.72,10.26,10.15,11.89,12.08,11.82,31.81,4.86,44.75-6.39,11.9-16.87,18.13-29.67,21C445.82,284.33,443.25,284.67,440.7,285.11Z"/><path class="cls-36" d="M223.49,137.37l-.58.66a16,16,0,0,0-3.81,13.85c.25,1.55,0,1.62-1.35,1.11a32.34,32.34,0,0,0-26.58,1.5c-3.48,1.77-6.26,1.66-9.55,1.07-1.11-.2-1.48-.52-.56-1.45,10.75-10.7,23.11-17.94,38.82-17.91a17.55,17.55,0,0,1,2.79.41C223.07,136.68,223.44,136.8,223.49,137.37Z"/><path class="cls-37" d="M429.83,267.73l-1-.5a49.71,49.71,0,0,0,9.39-2.3c8-3.12,11.34-9.78,8.85-18a39.62,39.62,0,0,0-5.14-10c-4.67-7.11-9.56-14.1-12.41-22.2-4-11.33-5.77-22.89-3.09-34.82.26-1.14.65-2.26,1-3.39s1-1.51,1.61-.07c-.82,3.44-1.9,6.77-2.08,10.39a74.38,74.38,0,0,0,1.61,19.23c2.25,10.66,7.71,19.76,13.78,28.59,3.13,4.56,6,9.23,6.86,14.91a14.84,14.84,0,0,1-8.11,15.94,32.31,32.31,0,0,1-7.84,2.63A4,4,0,0,1,429.83,267.73Z"/><path class="cls-38" d="M277.32,217.34h.87c2.59,11.09,10.12,17.76,20,22.29,3.13,1.43,3.17,1.41,1.4,4.39-4.23,7.08-9.75,12.93-17.52,15.92-7.39,2.85-14.58,1.77-21-3.09-2.37-1.81-4.64-3.75-7-5.63l.34-.68c1.61-.27,2.06,1.42,3.22,1.91,1.1.73,1.89,1.83,3.05,2.49,3.95,2.87,8.11,5.17,13.23,5,3.32-.12,4.35-.8,5.18-4,.43-1.65,1.52-1.95,2.61-1.12,3.1,2.36,5.28.69,7.69-1.22a38.82,38.82,0,0,0,8-9.24c1.5-2.25,1.34-2.55-1.17-3.87-1.26-.73-2.61-1.31-3.9-2-5.43-3.5-10.2-7.64-13.11-13.58a21.76,21.76,0,0,1-2.33-6.24A1.47,1.47,0,0,1,277.32,217.34Z"/><path class="cls-39" d="M429.8,171.81c5.77-10.19,14.76-15.71,26.09-17.56,8.31-1.35,16.36-.44,23.85,3.76a33.53,33.53,0,0,1,5.65,4.27,1,1,0,0,1,0,1c-.93.42-1.47-.27-2.06-.77-8.25-6.87-17.77-8.43-28.06-6.59a34.38,34.38,0,0,0-21.89,13c-.83,1.06-1.28,2.38-2.34,3.26C430.48,172.54,430.1,172.29,429.8,171.81Z"/><path class="cls-40" d="M523.78,192.24c1.84,1.37,3.54,2.83,3.24,5.48-2.2,2.43-3.77,5.43-6.61,7.28-2-1.39-1.57-3.16-.42-4.68,1.77-2.35,3.26-4.56,1.65-7.65C521.17,191.77,521.87,191.53,523.78,192.24Z"/><path class="cls-41" d="M412.36,242.22c5.32-.88,9.36-2.78,12-6.89.93-1.42,1.26-.28,1.47.38a18.67,18.67,0,0,1,.16,9.59,23,23,0,0,1-6,11.26C420.51,250.34,418,245.73,412.36,242.22Z"/><path class="cls-42" d="M429.8,171.81l.85.29c1.19-.47,2.33,0,3.48.21,4.32.94,8.6,2,13.06,2.16a5.93,5.93,0,0,0,5.36-2.85,15,15,0,0,0,2.65-7,3.33,3.33,0,0,1,.09-.94c.18-1.06.1-2.59,1.36-2.72s1.47,1.44,1.78,2.44a47.31,47.31,0,0,1,2.15,12.09,1.58,1.58,0,0,1-.54,1,.69.69,0,0,1-.73.06,42.16,42.16,0,0,0-2.2-12.49c-1,2.11-1.11,4.2-2,6.07-2.43,5.08-5.22,6.52-10.78,5.69a106.82,106.82,0,0,1-15.6-3.48Z"/><path class="cls-43" d="M428.78,176.13c-.6-.49-1-.09-1.36.32V175c6.86,1.81,13.6,4,20.58,5.36a1.53,1.53,0,0,1,1.29,1.47,41.69,41.69,0,0,0,14.63,26h-1.08l-4.38-4.31c-1.12-.07-1.53-1-2.1-1.75a40.54,40.54,0,0,1-7.89-17.29,3.89,3.89,0,0,0-3.56-3.43c-4.81-1-9.5-2.38-14.2-3.78C430,177.05,429.2,177,428.78,176.13Z"/><path class="cls-44" d="M241,271.82c-2.45.19-4.88.41-6.83,2.14-.79.69-1.53.25-2.13-.24a9.78,9.78,0,0,1-2.83-4.8c-.34-1,.51-1.21,1-1.54A7.44,7.44,0,0,1,241,271.82Z"/><path class="cls-45" d="M485.3,163.27l.09-1,.82.47a53.91,53.91,0,0,0-2.7,16.95c-.07,4.49-.07,9,0,13.49,0,1.45-.39,2.51-2,2.69-2.72.32-5.46.71-8.13-.32a1.08,1.08,0,0,1,.83-.8,2.75,2.75,0,0,1,.81,0h3.32c3.28-.09,3.89-.67,3.92-3.9V177.11a44.89,44.89,0,0,1,1.52-11A4.91,4.91,0,0,1,485.3,163.27Z"/><path class="cls-46" d="M418.83,172.21l-.92-.33c-3.17-.49-5.51-2.42-7.74-4.52a.91.91,0,0,1-.25-1.26.92.92,0,0,1,1.07-.35c2.68.79,5.59.93,7.85,2.85a.4.4,0,0,1,.11.31,2.07,2.07,0,0,1-.08.42L413.46,168l-.14.31,5.54,3.37Z"/><path class="cls-47" d="M218.87,75c.26-2.22,1.36-2.66,3.21-1.51.29.94.39,1.91-.66,2.38A1.92,1.92,0,0,1,218.87,75Z"/><path class="cls-48" d="M223.19,72l-.46-.78c-.46-.61-.1-1,.33-1.44l1.15-.7a3,3,0,0,1,1.74.61C226.05,72.17,225.81,72.38,223.19,72Z"/><path class="cls-49" d="M164.07,92.27a6.61,6.61,0,0,1-5.2-2.06Z"/><path class="cls-13" d="M334.78,62.17c-1.54.51-1.8.31-2.41-1.87Z"/><path class="cls-50" d="M160,84.08,162.7,87A3.69,3.69,0,0,1,160,84.08Z"/><path class="cls-51" d="M158.16,100.54c-1.37,0-1.84-.74-2.55-1.87A4,4,0,0,1,158.16,100.54Z"/><path class="cls-52" d="M100.56,116.07c-4.6-1.09-9.27-.79-13.93-.71-1.75.52-2.49.15-2.06-1.9.54-2.48.18-5,.22-7.55,0-1.88-1.42-2.69-2.6-3.71-.11-1.35,1-1.28,1.72-1.22,2.57.21,4.94-.85,7.45-1,.46,0,1,0,1.1-.62a1.38,1.38,0,0,0-.69-1.17c-1.41-1-3.11-1-4.73-1.21a22.54,22.54,0,0,1-3.28-.26c-.8-.21-1.77-.18-2.11-1.21,3.16-.77,3.56-3,3.18-5.77a4.09,4.09,0,0,1,0-.7c.28-2.55,0-4.8-2.9-5.73a6.09,6.09,0,0,1,5.71-4.69,37.56,37.56,0,0,1,6.36.24c5.4.43,5.66.41,6.8-5.29.85-4.27.3-4.66-3.94-4a32.65,32.65,0,0,1-5.41.36,18.19,18.19,0,0,0-6.94,1,6.68,6.68,0,0,1-6.13-.3c.43-1.52,1.75-1,2.72-1.09,2.63-.27,3.12-.72,3.19-3.32.13-5-.26-10,.26-15,.12-1.15-.78-1.85-1-2.82,2.46-2.26,5.42-3.72,8.3-5.29,1-.57,1.59-.34,1.85.84.2,1,.55,1.74,1.86,1.66s1.45-1,1.81-1.83c.81-2,1.59-2.11,3-.49,3.35,3.77,4.29,8.52,5,13.26,1.59,11,.92,22-.81,32.92A3.64,3.64,0,0,0,106,93.32c4.45,3.72,8.75,7.62,12,12.49a29.15,29.15,0,0,1,5,11.29,2.67,2.67,0,0,1-.24,2.3C115.57,116.66,108.57,113,100.56,116.07Z"/><path class="cls-53" d="M58.45,123.86a44,44,0,0,0-13.76,13.85c-2.15,0-4.27-.66-6.45-.27a.94.94,0,0,1-.84-.35c-1.17-1.77-2.73-2-4.59-1.28a4.29,4.29,0,0,1,1.4-2.37c2.14-1.52,2-4.38,3.61-6.3.44-.54-.2-1.17-.9-1.33a2.88,2.88,0,0,0-1.85.2c-.92.42-1.53-.09-2-.77a1.36,1.36,0,0,1,.42-1.86,3.51,3.51,0,0,0,.91-4.45,2.39,2.39,0,0,1,.61-2.8,10.3,10.3,0,0,0,2.6-7.53c0-6-.57-12,.3-17.94-1.73-2.41-1-4.9,0-7.44-2.38,1.27-3,4.1-5.46,5A42.35,42.35,0,0,1,42.45,75a13.26,13.26,0,0,1,7.31-3,18.74,18.74,0,0,1,6.55.28c2,.41,2.45,1.53,2,3.25a30.59,30.59,0,0,0-.71,5.13c-.19,1.89-.66,3.7,1.11,5.17a1.23,1.23,0,0,1,.07,1.73,1.71,1.71,0,0,1-1.72.51c-1.27-.18-2.29-1-3.53-1.3-2.22-1.51-2.66-1.33-3.17,1.31a3,3,0,0,0-.06,1.39c.64,2.24,1.6,4.37,2.15,6.65.17.71,1,1,1.51,1.42a8.58,8.58,0,0,0,3.26,2.65,1.44,1.44,0,0,1,1,1.66A1.28,1.28,0,0,1,56.81,103l-.17,0c-1.48-.27-2.46,1-3.8,1a5.9,5.9,0,0,1-3.63-.75c-1.24-.81-2.33-.28-2.31,1.25A21.93,21.93,0,0,0,49.23,114c.56,1.14,1.67,1,2.71.68a3.25,3.25,0,0,1,4,1.26,2,2,0,0,0,2.59,1.72,3.35,3.35,0,0,1,1.41,0c.82.21,1.93.27,2,1.33s-1.06.95-1.8,1.1C57.48,120.72,57.48,120.72,58.45,123.86Z"/><path class="cls-54" d="M53.29,86.34c1.38-.3,2.29.87,3.5,1.15.63.14,1.28.51,1.69-.18A1.22,1.22,0,0,0,58,85.69c-1.85-1-1.53-2.12-1.09-4,.55-2.29.18-4.81,1.07-7.15a1,1,0,0,0-1-1.5c-2.39-.34-4.67-1.33-7.15-1,1.44-.86,3.14-.66,4.6-.6,3.14.14,4.62-1.93,6.27-3.86.46-.55.74-1.18,1.52-1.31a3,3,0,0,1,1.62,1.16c-.35,2.29-1.11,4.59.39,6.77,1.08,2.19,2.49,4,5,4.77a3.51,3.51,0,0,1,2.32,1.7c1.82,1.2,2,2.66,1.69,4.85-.45,3.39-1,6.87-.45,10.36a42.54,42.54,0,0,1,.1,7.57,4.85,4.85,0,0,1-2.25,4,7.79,7.79,0,0,1-6.56-.6,20.14,20.14,0,0,0-3.82-1.79c-1.93-.55-3.74-1.6-5.88-.69a1.13,1.13,0,0,1-1.51-.49,1.08,1.08,0,0,1-.11-.36c1.54-.28,2.81-1.56,4.55-1.11.4.11.68-.34.61-.8a1,1,0,0,0-.93-.93c-1.87-.18-2.61-1.54-3.24-3,.78-1.49,1.7-.73,2.42,0a2,2,0,0,0,2.72.44,2.7,2.7,0,0,1,2.29,0,5.32,5.32,0,0,0,6.26-3.85c.41-2.26-2.61-4.57-5.11-3.9-2.69.71-7.52-1-9-3.32A.51.51,0,0,1,53.29,86.34Z"/><path class="cls-55" d="M63.68,67.39c-.79,0-1.46-.11-1.53-1.1A97.77,97.77,0,0,1,79,51.71c1.57-1,2.65-2.72,4.52-3.33,1.72.6,2,1.64,1.73,3.48-.67,4.61-.2,9.28-.26,13.93-.06,4.17-.23,4.37-4.44,4.44-.76,0-1.61-.27-2.21.48L78.1,71c-1.39.66-2.93.1-4.34.58a6.48,6.48,0,0,1-6.59-1.88C66.2,68.64,64.8,68.23,63.68,67.39Z"/><path class="cls-56" d="M223.06,69.73l-.33,1.44c-.2-1.38-1.91-.53-2.33-1.59,1.28.19,1.09-.59,1.1-1.46a63.44,63.44,0,0,0-2.22-17.28c-3.72-14-10.58-26.16-23.1-34.29a28.35,28.35,0,0,0-14.59-4.75c-.7,0-1.74.13-1.77-.73,0-1.08,1.09-.65,1.68-.62a31.73,31.73,0,0,1,16.87,6c9.87,7,16.12,16.62,20.16,27.88a73.3,73.3,0,0,1,4.26,24A6.66,6.66,0,0,0,223.06,69.73Z"/><path class="cls-57" d="M32.81,135.81c.28-.13.7-.18.82-.39,1.2-2.13,2.14-1.41,3,.22a2.12,2.12,0,0,0,2.73,1.25l.16-.07c1.84-.69,3.47.27,5.12.89l-2,6c-2.8.33-5.44.46-8.09-1.23s-3.18-2.26-2.08-5.13A9.58,9.58,0,0,0,32.81,135.81Z"/><path class="cls-58" d="M42.89,160.05c.1-.11,0,.09-.19.21a5.1,5.1,0,0,1-7.06-1.5,4.71,4.71,0,0,1-.53-1.08c-.59-1.55.67-2.47,1.38-3.45.6-.82,1.53-.19,2.34.18A6.33,6.33,0,0,1,42.89,160.05Z"/><path class="cls-59" d="M36.25,163.13c1.06,1.42,3.77-.4,4.72,2.17a2.21,2.21,0,0,1-.19,2.22c-.64.91-1.33.09-1.86-.14-1.29-.56-2.47-1.34-3.72-2-.58-.31-1.17-.57-1-1.37C34.4,163,35.24,163.26,36.25,163.13Z"/><path class="cls-60" d="M310,119.11c-.27.39-1.57.3-.69,1.19.55.56,1.09,1.06.56,1.75a1.83,1.83,0,0,1-1.93.5,7.48,7.48,0,0,0-1.16-.12c-.35.31-1,.22-.94-.06.19-1.36-1-2.39-.77-3.73.45-1,1.13-1.87.54-3.09a1,1,0,0,1,.93-1.56c1.35-.07,1.84-.91,2.33-2,.64-1.36,2.31-1.86,2.91-3.43.2-.53,1.5-.59.56-1.68-.23-.28.13-.81.54-.91,1.92-.46,2.71-2.15,3.61-3.56,2-3.15,5.32-5.31,6.75-8.92a1.79,1.79,0,0,1,2.25-1.14,2.12,2.12,0,0,1,.31.14c.66,2.68,2.32,5.13,1.87,8.07-2.25.24-2.69,2.34-3.72,3.76-.88,1.23-1.24,2.79-3,3.3-.52.15-1.31.85-.26,1.56,0,.95-.76,1.33-1.46,1.65a16.22,16.22,0,0,0-7.87,7.07A2,2,0,0,1,310,119.11Z"/><path class="cls-61" d="M283,144.27c1.4-3.17,2.36-6.63,5.63-8.58a2.07,2.07,0,0,0,2.22-.4c2.15-2.44,5.26-4,6.48-7.29,2.33,1.29,2.7,2,1.84,3.45a4,4,0,0,1-.89,3c-1.26,2-1.68,4.27-2.42,6.44-1.87-.28-2.62,1.09-3.42,2.37a6.57,6.57,0,0,0-3.23,2.72C287.27,145.06,285.07,145,283,144.27Z"/><path class="cls-62" d="M306.83,127.25c1.28-2,3.29-2,5.33-2a2.09,2.09,0,0,1,2,1.66c.32.91-.68,1-1.31,1.28a17.38,17.38,0,0,0-5.11,4.47c-1.51,1.68-3.48,2.48-5.44,3.41-1.42-3.48,1.33-5,3-7A2.15,2.15,0,0,1,306.83,127.25Z"/><path class="cls-62" d="M310,119.11c2-3.69,4.45-6.91,8.56-8.52a12.61,12.61,0,0,0,2.14-1.38c1.48,1.49.74,3.11.13,4.62a9.49,9.49,0,0,1-1.64,2.29C317.74,117.85,311.7,119.8,310,119.11Z"/><path class="cls-63" d="M327.68,100.59l-2.31-8.15a3.81,3.81,0,0,1-.53-4.19l.24-.62.26.62c.36,1.27.71,2.54,1.06,3.81l1.82,5.22c3.45,8.67,8.89,15.63,17.27,20.09a27.55,27.55,0,0,1-15.18-12.08C329.37,103.76,328.55,102.16,327.68,100.59Z"/><path class="cls-61" d="M305.36,118.63c.47,1.26.95,2.53,1.43,3.8a2.34,2.34,0,0,1-.88,2.28,2.44,2.44,0,0,0-1,2.46h0c-1.6.27-2.2,1.6-2.79,2.82-.27.56-.36,1.17-1,1.44a7,7,0,0,0-2.63-3.09c-1.84-1-.73-2.15.26-3.13.17-.15.36-.29.54-.42.47-.25.86-.81,1.51-.44a5,5,0,0,1,.73,1.56c1.39-1.82,4.51-3,2.31-6.21a1.08,1.08,0,0,1,.82-1.29h.08A.89.89,0,0,1,305.36,118.63Z"/><path class="cls-64" d="M361.89,80.1c0,1.42.08,2.74-1.17,2.87s-1.5-1.1-1.78-2.1c-.42-1.46-.66-2.91.33-4.24a.74.74,0,0,1,1-.12l0,0A4.3,4.3,0,0,1,361.89,80.1Z"/><path class="cls-60" d="M299.18,125.27c-.79,1.18-2.57,2.38.52,3.07,1.29.29,1.57,1.76,1.38,3.09h-1.89c.68-1.82-1.43-2.1-1.83-3.33a2.14,2.14,0,0,1-.53-2.3,1.66,1.66,0,0,1,.42-.71A1.5,1.5,0,0,1,299.18,125.27Z"/><path class="cls-65" d="M292.46,143.3c.26-3,.86-3.45,3.42-2.37l-2.74,4.18C292.33,144.56,292.69,143.84,292.46,143.3Z"/><path class="cls-61" d="M306.83,127.25A3.67,3.67,0,0,1,305.3,129c-.63-.51-.35-1.23-.42-1.87h0C305.51,127.75,306.27,125.15,306.83,127.25Z"/><path class="cls-66" d="M474,195.13l-.61.43c-6.68-1.55-11.73-5.21-14.78-11.44a3.46,3.46,0,0,1-.11-2.73,16.66,16.66,0,0,0,.82-4.85h.3c1.93-.39,3.66-1.46,5.66-1.57,2.57-.15,3.12.53,2.27,3-1.88,5.41-.77,10.17,2.9,14.49C471.45,193.65,473,194,474,195.13Z"/><path class="cls-67" d="M70.28,107.26c3.25-3.39,1.8-7.58,1.74-11.44s-.19-8,.9-11.94a1.33,1.33,0,0,0-.66-1.75h0c-.65-.38-1.55-.55-1.44-1.61a1.59,1.59,0,0,1,1.58.1A25.54,25.54,0,0,0,82,83.44c3.26.21,3.34.4,3.47,3.67.08,2-.08,4,.12,6.09.21,2.31-2.11,2.21-3.86,2.17l-.28-.14a3.27,3.27,0,0,0-1.93-1.34c-1.87.89-2.25,4.27-.65,6.06A7,7,0,0,0,82.2,102c2.21.32,3.4,1.58,3.26,3.82-.17,2.88.44,5.78-.43,8.67-.4,1.31,1.09.49,1.6.85-3.77.62-7.59,1-11.32,1.9a59.13,59.13,0,0,0-16.86,6.6c-.55-1-2.19-1.52-1.57-2.81s2.07-1.56,3.49-1.48a1.15,1.15,0,0,0,1.2-.53c-1-.58-1.88-1.1-3.14-.68-1.93.64-2.84-.22-2.83-2.18a91,91,0,0,1,9.62-.59,9.14,9.14,0,0,0,5.42-1.31,7,7,0,0,1,3.81-1.06,6.44,6.44,0,0,0,2.09-.29c1.25-.45,3.08-3.24,2.68-4.36-.62-1.76-2.23-1-3.46-1.09C74,107.4,72.07,108.54,70.28,107.26Z"/><path class="cls-68" d="M280.18,99.64c.1-.57-.57-1.2.18-1.72,4.28-3,6.21-8,9.92-11.56,2.08-2,3.34-4.71,5.64-6.56A4.14,4.14,0,0,0,297.23,78c.59-1.93,1.23-.68,1.89-.11.46,2.25-1.64,3.52-2.15,5.42,2.24-.07,3.58-2.49,5.94-2.13.6,1.09.81,2-.77,2.5a1.18,1.18,0,0,0-.65.61c-2.67,6.15-8.31,10-12,15.33-1.48,2.13-3,4.22-4.55,6.33Z"/><path class="cls-61" d="M280.57,143.26c.82,0,1.63.08,2,1a7.32,7.32,0,0,1-2.09,0C279.4,144,280.14,143.56,280.57,143.26Z"/><path class="cls-69" d="M159.55,57c1.84.26,3.77.12,5.45,1.16a3.92,3.92,0,0,0-.13.49c-.5,3.83-3,4.82-6.43,4.61-.27,0-.56.24-.84.37a.83.83,0,0,1-.84-.82.57.57,0,0,1,0-.13c.15-1.94-1-3.39-1.87-5C156.39,56.63,158,57.12,159.55,57Z"/><path class="cls-70" d="M143.65,73.23c-1.92-5-.19-9.44,4.1-11.37.68-.31,1-.29,1.36.59.75,1.93.84,3.42-1,4.94S145.11,71,143.65,73.23Z"/><path class="cls-71" d="M419.42,111.05c1-1,1.7-2.53,3.58-1.57a2.87,2.87,0,0,1,1.52,3.71c-.65,2.16-2.52,1.64-4.13,1.61C419.34,113.74,418.66,112.58,419.42,111.05Z"/><path class="cls-72" d="M431.45,127.15c-2.13,3-6.64,3-8.2.33a1.31,1.31,0,0,1,0-1.35.74.74,0,0,1,1-.39.87.87,0,0,1,.23.16C426.36,127.64,428.63,128,431.45,127.15Z"/><path class="cls-73" d="M424.6,133.81a8.06,8.06,0,0,1-3.28-1.37c-.46-.28-1.08-.63-.91-1.25s.93-.8,1.57-.74c1.59.16,2.72,1.55,4.36,1.7.38,0,.28.63.1,1C426.08,133.89,425.43,133.8,424.6,133.81Z"/><path class="cls-74" d="M432,131a15.11,15.11,0,0,1-4.42,8.56C429,136.69,430.59,133.87,432,131Z"/><path class="cls-20" d="M419.42,111.05c-.57,1.48.49,2.54,1,3.75C418.41,114,418.48,112.63,419.42,111.05Z"/><path class="cls-75" d="M536.11,171.34c.49-3.68.56-7.13,1.73-10.41.5-1.4,1.25-2.82,3-2.31a3.33,3.33,0,0,1,2.27,3.71,13.34,13.34,0,0,0,0,3.22,3.76,3.76,0,0,1-2.55,4.08C539.21,170.23,537.8,170.7,536.11,171.34Z"/><path class="cls-76" d="M531,172.37c-.44.15-1,.16-1.29.45-1.32,1.31-2.12,1.56-2-.77a1.44,1.44,0,0,0-.26-.87c-.57-.79-1.74-1.61-.93-2.57,1.42-1.67,2.09-4,4.3-5a1.12,1.12,0,0,1,.69.06C532.38,166.65,533.13,169.6,531,172.37Z"/><path class="cls-77" d="M531,185.08c-.43.33-.84.69-1.29,1s-1.15,1.43-1.94.53c-.55-.64-1.27-1.2-1.11-2.41.23-1.8,1.16-3.34,1.57-5.06.35-1.46,1.49-.34,2.29-.3,1.62,1,3.43,1.81,1.48,4.18A7.15,7.15,0,0,0,531,185.08Z"/><path class="cls-78" d="M530.49,161.22c-.39-1-1.26-1.25-2.23-1.41a2.46,2.46,0,0,1-1.89-1.8c-.26-1,1-1,1.58-1.38,1.25-.78,2.81-.91,4-1.87.38,0,1.06,0,1.1.13.54,1.75-.11,3.44-.45,5.13a1.49,1.49,0,0,1-1.63,1.33A1.55,1.55,0,0,1,530.49,161.22Z"/><path class="cls-79" d="M538,145.38a2.91,2.91,0,0,1-2.82,3H535a3,3,0,0,1-3-2.88v0a3.23,3.23,0,0,1,2.93-3.11C536.35,142.19,538,144,538,145.38Z"/><path class="cls-80" d="M537.2,176.14c-.13,1-.31,1.89-1.27,2.15-.73.2-2.56-2.58-2.61-3.68s.54-1,1.21-.92A2.8,2.8,0,0,1,537.2,176.14Z"/><path class="cls-81" d="M175.19,64.48c-.81-.36-2.33,1.14-2.48-.83-.16-2.15,1.59-4.83,3-4.89.62,0,1.24.06,1.86.09,2.38.93,4.74,1.89,7.13,2.74A4.66,4.66,0,0,1,187,63.14C183,64.16,178.88,62.58,175.19,64.48Z"/><path class="cls-82" d="M109.14,247.7H92.05c-1.76,0-3.33-.46-4.16-2.1a4.8,4.8,0,0,1,.75-5.32A8.68,8.68,0,0,1,90,239c4.76-4.11,5.08-9.18,3-14.63-4.75-12.49-9.61-24.94-14.38-37.42-3.44-9-6.78-18.06-10.26-27.06a5,5,0,0,0-3.9-3.32c-5.75-1.17-10.33-6.64-8.85-12.1.93-3.43,3.66-5.17,6.49-6.74a96.65,96.65,0,0,1,17.87-8.14c4.86-1.5,9.84-3,14.89-.46,4.8,2.37,6.31,7.56,3.34,12a31,31,0,0,1-3.76,4.48,4.67,4.67,0,0,0-1,5.23q6.51,19.88,13.09,39.73c1.51,4.54,3.09,9.06,4.6,13.6.36,1,.54,2.41,1.89,2.36s1.69-1.58,1.89-2.66a97.11,97.11,0,0,1,3.58-13.2,133.41,133.41,0,0,1,23.24-41.21,146.52,146.52,0,0,1,39-34A126.56,126.56,0,0,1,206,103.7a102.58,102.58,0,0,1,40.57-4.82c6.31.52,12.53,1.94,18.09,5.44a20,20,0,0,1,9.89,16.38c.33,4.84.17,9.59-2.33,14-3.3,5.86-8.39,9.31-14.6,11.42-7,2.38-14.3,2.07-21.56,1.92a2.43,2.43,0,0,1-2.44-1.15c-.44-.94.62-1.49,1.07-2.17,4-5.93,4.4-16.46-3-20.89-4.78-2.85-10.21-3-15.59-2.61-14.6.91-26.54,8-37.56,16.79-15,12-27,26.7-36.76,43.21-5.84,9.84-10.78,20.08-13,31.37-1.65,8.21-1.65,16.29,4.25,23.25a8.07,8.07,0,0,1,2,4.21c.63,4.87-2.39,7-8.4,7.5-5.73.51-11.54.11-17.32.11Z"/><path class="cls-83" d="M303,81.09c-1.86,1-3.71,2-5.59,2.89-.37.19-.85.63-1.26.18s0-.87.23-1.26a29.19,29.19,0,0,0,2.83-5.1,42.81,42.81,0,0,0,5.68-24.33,6.24,6.24,0,0,0-.36-1.33,27.19,27.19,0,0,0-1.88-10c-.28-1-.57-2-.89-3.18,1.56,1,2.25,2.53,3.32,3.72,2.62,4.23,5.2,8.48,6.65,13.29,1.88,6.07,1.64,12-1.55,17.58A39.17,39.17,0,0,1,303,81.09Z"/><path class="cls-84" d="M517.17,191c.34-3.14-.8-6.2,1-9,.38-.57.8-1.36,1.58-1.26s.9,1,1.11,1.65C522.16,186.49,521.49,188.12,517.17,191Z"/><path class="cls-82" d="M254.07,307.56a72.57,72.57,0,0,1-19.14-.08c-12.59-1.84-22.86-7.23-29.88-18.31-9.28-14.66-4.92-31,5.35-42.47a34.76,34.76,0,0,1,7.15-6.33c1-.6,1.3-1,.53-2a7.83,7.83,0,0,1-1.49-3.91c-.32-1.93-1.85-2.88-3.52-2-9.25,5.07-18,2-24.48-4.58-1.56-1.58-2.39-2.3-4.76-.41-6.11,4.87-13.45,7.16-21.2,5.74-8.7-1.6-14.93-7.13-17.15-15.65-4.63-17.79-.24-33.73,12.82-46.52,10.33-10.12,24.29-10.23,35.84-1.89,1.87,1.35,2,.39,2.46-.88a12.32,12.32,0,0,0,.4-2.08c.72-4.34,1.28-4.94,5.5-6a19.53,19.53,0,0,0,2.22-.79,18.54,18.54,0,0,1,9.83,1.81c1.87.94,2.3,2.23,1.66,4.24-3.3,10.4-6.59,20.81-9.69,31.26a22.43,22.43,0,0,0-.52,11.44,5.68,5.68,0,0,0,9.54,2.94c3.22-3.16,4.48-7.33,5.73-11.42A197.23,197.23,0,0,0,226.63,175a2.1,2.1,0,0,0-1.22-2.42c-3.15-2.09-3.65-5.09-3.15-8.5a5.69,5.69,0,0,1,4.91-4.87,131.68,131.68,0,0,1,15.38-.89c3,0,6-.27,9-.4,2-.09,3.41.49,3,3-.22,1.47-.33,3-.44,4.46-.06.87-.15,1.88.68,2.37a2.31,2.31,0,0,0,2.58-.48c4.73-3.4,9.28-7.08,14.71-9.39a18.3,18.3,0,0,1,14.46-.18c3.56,1.44,6.16,6.24,5.83,10.52-.76,9.73-5.41,17.06-13.88,21.89a10.39,10.39,0,0,1-5.62,1.48c-3.84-.14-6.29-2.4-6.57-6.27-.09-1.19.22-2.57-1.19-3.28-1.6-.79-2.88,0-4.09.93-6.35,5.11-10.76,11.66-14.1,19a44.57,44.57,0,0,0-3.82,13.81,2.15,2.15,0,0,1-1.11,1.66c-.66.44-1.68.63-1.74,1.72l-.17.27c-1.4,1.25-3.17,2.08-4.19,3.75a2.69,2.69,0,0,1-1.18,1.11,21.45,21.45,0,0,0-5.84,5.79c-3.23,3.47-4.53,7.27-2.39,11.88,1.4,3,4.29,3.29,6.87,4a51.36,51.36,0,0,0,15.93,2c1.66-.07,3.2.18,3.74,2.13a87.84,87.84,0,0,1,1.75,9.26c.08.91.19,1.86-.59,2.37-.94.61-1.58-.35-2.16-.89-2.76-2.53-5.38-5.28-8.81-6.9-4.54-2.14-9.18-3.68-14.08-.8a11.8,11.8,0,0,0-6,10c-.71,11.06,7.69,20.27,17.46,22.62,6.81,1.64,13.42,1,20-.79,16.31-4.39,29.89-13.39,42-24.86,7.4-7,13.87-14.72,17.84-24.25a24.12,24.12,0,0,0,2-8.69c0-.9.32-2-.83-2.5-.91-.41-1.65.09-2.39.6a30,30,0,0,1-11.07,4.79,14.5,14.5,0,0,1-15.75-7.1,32,32,0,0,1-3.72-14.68c-.31-9.62.52-19.06,3.8-28.2,2.55-7.1,6-13.48,12.37-18.07,5.87-4.24,18.95-3.54,23.85,2.08.74.85,1.59,1.54,2.87,1.08s.82-1.59.93-2.44c.48-3.75.57-3.57,4.4-4.38a37.11,37.11,0,0,1,8.92-.82c3.16.1,4.24,1.17,4.22,4.34a236.74,236.74,0,0,1-2.35,30.44A219.34,219.34,0,0,1,339,230.72c-6,18.4-14.51,35.47-27.83,49.7A82.49,82.49,0,0,1,279,302,94.06,94.06,0,0,1,254.07,307.56Z"/><path class="cls-85" d="M257.43,252.83l-3-2.29-1.31-1.09a6.09,6.09,0,0,0-4.16-1.07,43.43,43.43,0,0,1-9.31-.78c-3-1.32-5.57-3-6.6-6.32,0-1.75.87-2.2,2.42-1.83a30.07,30.07,0,0,0,3.26.58,25.8,25.8,0,0,0,10.28.35,10.61,10.61,0,0,0,3.9-1.57c1-.64,1.91-.47,2.09.81a21.1,21.1,0,0,0,5,10.51C260,251.86,258.69,252.31,257.43,252.83Z"/><path class="cls-86" d="M239.36,247.13a44.4,44.4,0,0,0,10.54.89,3.47,3.47,0,0,1,3.26,1.43,5.93,5.93,0,0,1-.1.72,4.13,4.13,0,0,0-3.71-1.51,58.6,58.6,0,0,1-19.4-2.87c-4.86-1.46-6.82-8.51-3.56-13.21.7-1,1-2.53,2.59-2.81l.17.28c-.26,2.15-2.32,3.42-2.69,5.51a8.38,8.38,0,0,0-.23,2.59,7.65,7.65,0,0,0,.69,3.16,3.89,3.89,0,0,0,2,2.42,19.75,19.75,0,0,0,5.8,1.9A47.32,47.32,0,0,1,239.36,247.13Z"/><path class="cls-33" d="M299.18,125.27h-1.89c-.83-.33-1.51-.32-1.69.78a4.66,4.66,0,0,1-2.92,3.07,2.87,2.87,0,0,0-2.65.81c-.29-.64-.32-1,0-1.13,2.73-.86,3.68-3.08,4.39-5.53.08-.28.23-.66.46-.77,2.38-1.15,3.62-3.31,5.12-5.33,2.77-3.69,5.84-7.16,8.77-10.74,3.48-4.25,7.18-8.34,10.28-12.85,1.27-1.84,3.48-2.71,4.27-4.88.2-.55,1-.43,1.51-.45.17,1.4.35,2.8.53,4.19-2.19.81-2.46,3-3.35,4.71-.28.55.27,1.84-1.2,1-.38-.22-.58.37-.8.67-1.37,1.82-2.83,3.57-4.1,5.45-.81,1.2-1.57,2.28-3.15,2.22-.1,1.17,1.76.36,1.34,1.57a1.24,1.24,0,0,1-1.74.7c-.33-.1-.82.24-.7.42,1.4,2.08-1,1.37-1.46,2s-1,1-1.1,1.5c-.26,1.35-.6,2.19-2.28,1.74-.73-.2-1.32.47-.68,1.15,1.41,1.53-.05,2.17-.79,3.06h-.48c-.64-.28-.64-.28-1.65,1.23-.9.78-1.32,1.93-2.14,2.77-2.07,0-1,1.72-1.43,2.64Z"/><path class="cls-87" d="M292.68,129.12q1.36-1.68,2.74-3.35c.65-1.1,1.25-1,1.82.07l.12,2.28c0,1.47-.14,2.59-1.79,3.52s-3.06,2.83-4.57,4.28c-.85.83-1.73,1.58-2.35-.23C289.39,133.13,291.74,131.55,292.68,129.12Z"/><path class="cls-88" d="M234.76,224l.82-.73a22.72,22.72,0,0,1,4.75-4h0c3.88-2.39,7.75-4.82,11.67-7.15,1.6-1,3.32-1.69,5-2.53.79.13,1,.76,1.06,1.37a36.3,36.3,0,0,1,1,7.41c-.08,1.06-.29,2.09-1.57,2.28a20.16,20.16,0,0,0-7.85,2.93c-1,.17-2.21-.24-3.1.64a8,8,0,0,1-1,.93,2.78,2.78,0,0,1-.62.25c-.31.07-.71,0-.92.16-1.76,1.4-3.61,2.4-5.95,1.56-1.19,1.82-4,.93-5,3.07-.5,1-1.26.77-1.8-.05a6,6,0,0,1-.59-1.79A10.74,10.74,0,0,1,234.76,224Z"/><path class="cls-89" d="M258.41,218.64c0-3.09-.84-6-1.47-9a6.12,6.12,0,0,1,2.4-1.24c4.09.08,4.69.57,5.71,4.7.38,1.53.84,3,1.09,4.61.39,2.16.89,4.29,1.31,6.45a25.32,25.32,0,0,1,0,4.44,3.61,3.61,0,0,1-2.63,3c-1.65.26-3.31.55-4.81-.57-1.33-1.28-.65-3.09-1.21-4.58-.34-1.4,0-2.87-.47-4.26C258,221,259,219.8,258.41,218.64Z"/><path class="cls-90" d="M265.55,217.81a25.91,25.91,0,0,1-.93-3.89c-.31-3.29-1.82-5.32-5.28-5.57,3.67-.46,4.88-3.55,6.55-6.13.91-1.41,1.54-2.15,3.05-.4a9,9,0,0,0,6,2.8c1.19.13,1.54.59,1.48,1.81-.12,2.51,0,5,0,7.54.06,1.09-.73,1.16-1.5,1.24-1-.32-1-1.3-1.32-2.09A17.27,17.27,0,0,0,272,209a2.84,2.84,0,0,0-3.74-1.06c-1.57.63-1.81,1.82-1.5,3.29.48,2.21,1.73,4.27,1.3,6.66C267.19,218.82,266.36,219.07,265.55,217.81Z"/><path class="cls-91" d="M274.83,215.06l1.62-1.11c.76,1,0,2.39.87,3.37,0,.5,0,1,.05,1.5.25,1.06.39,2.08-1.07,2.37A7.82,7.82,0,0,1,274.83,215.06Z"/><path class="cls-92" d="M399.43,116.38a3.47,3.47,0,0,1-.37.57c-1.54,1.65-3.09,3.3-4.76,4.84A10.06,10.06,0,0,1,399.43,116.38Z"/><path class="cls-93" d="M387.42,132.53,385.16,137a6,6,0,0,1,1.46-4.61Z"/><path class="cls-82" d="M418.84,168.6l-8.65-2.6c1.9,3,5,4.15,7.72,5.88-1.09,4.25-2.13,8.51-3.29,12.73-1.87,6.83-4.1,13.56-5.12,20.59a7.89,7.89,0,0,0,6.33,9.19,7.8,7.8,0,0,0,3.4-.12,2.75,2.75,0,0,1,3.3,1.54c2.69,4.85-.58,15.68-5.54,18.13-3.67,1.81-7.64,1.75-11.57,1.13A20.5,20.5,0,0,1,393,228.18c-1.68-1.91-3.21-1.91-5.29-.49-3.53,2.39-7.07,4.74-11.31,5.95-9.66,2.76-17.61-.79-22.71-8.31-3.63-5.37-4.75-11.47-4.44-17.77a50.15,50.15,0,0,1,15.22-34.24c4.46-4.41,9.7-7.71,15.92-8.85,5.38-1,10.61-.25,15.16,3.29,3,2.33,4.81,1.84,5.42-1.87.73-4.44,3.71-5.82,7.38-6.24a19.35,19.35,0,0,1,8.66.47c2.46.83,3.28,2.24,2.84,4.59C419.53,166,419.16,167.31,418.84,168.6Z"/><path class="cls-82" d="M428.78,176.13c5.7,1.53,11.38,3.13,17.11,4.52,1.83.45,2.69,1.1,3.08,3.12a42.35,42.35,0,0,0,9.54,19.76c.53,2.39,2.46,3.75,4,5.38,4.16,4.36,8.94,8.08,12.61,13,4.68,6.2,6.52,13.21,6.66,20.76A38.76,38.76,0,0,1,457.52,280a53,53,0,0,1-15.39,4c-8.44,1.46-16.88.67-25.27-.24a94.09,94.09,0,0,1-17.26-3.54,61.71,61.71,0,0,1-17.14-7.77c-4.28-2.91-8-6.4-9.59-11.52-2.19-7.17,1.77-17.28,10.35-19.8a17.74,17.74,0,0,1,13.27.78c5.23,2.52,5.89,10.44,3,14.37-2.7,3.69-2.67,3.68,1.14,6.43,8.9,6.42,18.79,7.24,29.19,5.15a25.63,25.63,0,0,0,12-3.5c6.71-3.69,7.87-11.52,6.06-17.65-1.75-5.91-5.52-10.7-8.81-15.73-5.12-7.82-9.47-16-11.28-25.22-1.87-9.56-3-19.17.52-28.65A8.1,8.1,0,0,1,428.78,176.13Z"/><path class="cls-94" d="M221.8,137.6A18.43,18.43,0,0,0,218,151.86a38.46,38.46,0,0,0-24.74.42,8.48,8.48,0,0,0-3,1.31,6,6,0,0,1-7.71.72C190,144.29,211.74,134.88,221.8,137.6Z"/><path class="cls-95" d="M265,231.11c.85-.63,1.79-1.17,2-2.35a3.4,3.4,0,0,1,3-.59c4,1.37,5,1.13,6.7-1.64.73-1.15,1.25-2.73,3.14-1.62,3.14,5.59,7.73,9.75,13,13.23a4,4,0,0,1-3.3,2.2c-3.64.7-6.95,2.49-10.46,3.68-4.32,1.46-8.51,3.26-12.93,4.49-2.07.57-4,1.63-6.19,2a17.76,17.76,0,0,1-5.45-11.76c-5,3.23-10.2,3.23-15.51,1.84A1.11,1.11,0,0,1,239,239a1.14,1.14,0,0,1,.57-.28c6-2.16,12-4.36,18.07-6.24.87-.27,1.72-.5,2.17.64.69,2.53,2.41,3.28,4.69,2,.54-.3,1.2-.61,1-1.37s-.83-.6-1.36-.65a5.7,5.7,0,0,1-2.74-.44c-.76-1.1-.1-1.3.84-1.37S264,231.57,265,231.11Z"/><path class="cls-96" d="M296.33,240.13a1.24,1.24,0,0,1,.47,0c3.1,1.29,3.15,1.33,1.36,4.15a39.68,39.68,0,0,1-10.39,11.36c-1.87,1.34-3.35,1.61-5.18.25-1.53-1.15-2.79-1.86-3,1.13-.15,2.12-2.29,3.37-4.94,3.47-5.54.22-10.24-1.83-14.39-5.34a9.61,9.61,0,0,1-.86-1.13c-.29-.48-.55-1-.16-1.53a1.14,1.14,0,0,1,1.48-.39,2.25,2.25,0,0,0,3.11-.64,1.78,1.78,0,0,1,1.06-.5c8.25-1.62,15.79-5.31,23.67-8a3.6,3.6,0,0,1,1.83-.33c.45.07,1,.25,1.2-.38C292.33,239.7,294.5,240.29,296.33,240.13Z"/><path class="cls-97" d="M296.33,240.13c-1,.22-1.64,1.18-2.8,1-.94-.17-1.48.11-1.13,1.32.27.92-.62,1.87-1.27,1.29-1.46-1.33-2.23,0-3.29.4-6,2.16-12,4.32-18.1,6.43-1.46.52-2.89,1.26-4.55,1a1.23,1.23,0,0,0-1.2.58c-.87,1.1-1.7,2.57-3.18.56-.13-.19-.78-.17-1.08,0-.49.23-.17.66,0,1l.57,1.54-2.83-2.37c.49-1.08,1.78-1.34,2.38-2.31,2.09-1.49,4.54-2.09,6.93-2.81,4-1.2,7.8-2.7,11.67-4.16,3.55-1.35,7.07-2.92,10.68-3.91,1.34-.36,2.32-1.26,3.6-1.5A13.33,13.33,0,0,1,296.33,240.13Z"/><path class="cls-98" d="M279.68,225c-1.63-.44-2,1-2.78,1.86-.93-1.82-1.42-3.68-.48-5.66a2.88,2.88,0,0,0,.95-2.27Z"/><path class="cls-99" d="M280.67,255.69l3.64,2a18.77,18.77,0,0,1-5.6,2.63C279.71,258.66,280.74,257.5,280.67,255.69Z"/><path class="cls-82" d="M485.3,163.27c-2.33,6.9-2.54,14-2.36,21.19v4.73c0,6.24-2.12,7.74-8.42,5.92-6.91-2.24-10.14-11.83-6.65-18.1.81-1.46.26-1.85-1.07-1.9a8.36,8.36,0,0,0-3.93.5A3.26,3.26,0,0,1,460,176c-.28-6-1.56-11.69-3.37-14.92a6,6,0,0,0-.74,3.13,15.09,15.09,0,0,1-3.72,9c-2.25,2.73-5.32,2.12-8.14,1.74a101.76,101.76,0,0,1-13.38-2.86A33,33,0,0,1,449,156.89a39.1,39.1,0,0,1,20.48-1.55C475.62,156.45,480.64,159.4,485.3,163.27Z"/><path class="cls-100" d="M425.14,236.31c1.13,6.71-.34,12.23-4.13,17.9a15.27,15.27,0,0,0-5.9-11.4A19.44,19.44,0,0,0,425.14,236.31Z"/><path class="cls-101" d="M460,176a33,33,0,0,1,4-1.24c2-.35,4-.49,5.69,1.15-3.61,2.8-3,6.74-2.29,10.46a10.76,10.76,0,0,0,7,8.22c.06,0,.17.08.17.12a2.73,2.73,0,0,1-.05.4H474c-2.26-.2-3.7-1.64-4.92-3.35-3.25-4.56-4.18-9.44-1.74-14.65.57-1.2.39-1.49-.84-1.54a11.76,11.76,0,0,0-4.82,1c-.68.26-1.38.93-2.06,0Z"/><path class="cls-102" d="M239.56,270.76c-2.06.57-4.13.76-5.71,2.13-.73.62-1.17.18-1.55-.29-1-1.19-2.39-2.69-1.71-4s2.63-1.34,4.27-1A6.87,6.87,0,0,1,239.56,270.76Z"/><path class="cls-103" d="M82,83.44c-2.57.85-4.89-.09-7.19-1.06-1.36-.58-2.7-1.24-4-1.86-.63-.47-1.26-.94-1.88-1.42-1,.21-1.38-.54-1.84-1.16a43.75,43.75,0,0,0-3-3.24c-1.64-1.6-1.82-5.06-.37-7.31,1.63-.43,2.74.7,3.6,1.62a6.51,6.51,0,0,0,6.34,2.08c1.56-.45,3.2.2,4.75-.38h0c2.68-.22,5.52.68,8-1.31.44-.36,1.37-.13,2.08-.15,3.92-.09,7.89.23,11.72-1,1-.32,1.43,0,1.55,1.07a19.89,19.89,0,0,1-1.5,9.21c-.41,1.1-1.44,1.14-2.39,1.1-2.68-.11-5.36-.14-8-.45C86.12,78.78,83.79,80.51,82,83.44Z"/><path class="cls-104" d="M82.2,102c-1.78,1.15-2.45-.67-3.43-1.4-1.3-1-1.78-5.32-.92-6.77.49-.81,1.1-1.07,1.89-.36.41.86,1.49,1,1.94,1.82l.08.06c2.49,1.58,5.39.66,8,1.3A4.76,4.76,0,0,1,92.48,98c.66.7,1.47,1.37.94,2.44s-1.39.17-2.08.26C88.29,101,85.25,101.55,82.2,102Z"/><path class="cls-105" d="M70.28,107.26c2.62.22,5.15-.71,7.78-.47,1.79.17,2.58.64,1.84,2.66-1.43,3.91-1.68,4.22-5.8,4.43a4.06,4.06,0,0,0-2.29.47c-2.64,2-5.68,2.15-8.8,2a13.8,13.8,0,0,0-4,.32,4,4,0,0,1-3.41-.49c-1.2-1-2.36-1.57-4-.63-1.37.79-2.65.2-3.17-1.35a32.58,32.58,0,0,1-2.25-8.79,3.69,3.69,0,0,1,.91-2.77c.78-.93,1.23-1.66,2.14-.18.81,1.31,2.24.87,3.44,1,.36.14.8.49,1,.38,4.21-1.69,7.46.9,10.84,2.54A11.23,11.23,0,0,0,70.28,107.26Z"/><path class="cls-57" d="M53.29,86.34c2.8,2.2,5.35,4.93,9.55,3.16,1.76-.75,3.74.66,5,3.35,1,1.94-.47,3.36-1.68,4.36a6.51,6.51,0,0,1-5.91,1.5c-2-.38-4.2,0-6.07-1.4a3.58,3.58,0,0,0-.58.33c-2,.21-2.09-1.43-2.29-2.63a9.76,9.76,0,0,0-1.09-3.32,5.8,5.8,0,0,1,.53-6.49C52.43,83,52.3,86.23,53.29,86.34Z"/><path class="cls-58" d="M42.38,120.14a3.62,3.62,0,0,1-1.78,3.14c-.87.5-1.5,2.49-3,.77-.11-.12-.45-.1-.66-.06-1.94.34-1.93.34-1.38-1.7a2.74,2.74,0,0,0-.16-2.49,1.21,1.21,0,0,1,.07-1.71c1.09-1.08,1-3.38,3.28-3.21C39.45,115,42.34,119.24,42.38,120.14Z"/><path class="cls-55" d="M64.05,74.7c1.69-.09,2,1.53,3,2.39.68.62,1.28,1.34,1.92,2-.1.12-.18.34-.29.35C67.43,79.62,64,76,64.05,74.7Z"/><path class="cls-106" d="M81.57,66.33c-3.17,2.37-4.33,2.46-6.69,1.12A4.76,4.76,0,0,1,73.46,61c1.48-2.06,3.73-3,6.36-1.29.11.08.3,0,.45.07,1.09-.47,1.09.41,1.3,1,.19,1.57.9,3.13.2,4.74C82,65.84,82,66.14,81.57,66.33Z"/><path class="cls-52" d="M81.57,60.76c-.43-.35-.86-.7-1.3-1,.28-.26.66-.8.83-.74,1,.36,2-1.78,2.57-.44S82.59,60.28,81.57,60.76Z"/><path class="cls-52" d="M81.57,66.33c.07-.28.14-.55.2-.83l1.39-.73C83,66.1,83,66.1,81.57,66.33Z"/><path class="cls-52" d="M78.37,70.71c-1.53.75-3.16.35-4.75.38C75.15,70.29,76.78,70.82,78.37,70.71Z"/><path class="cls-3" d="M301.07,122.42a3.68,3.68,0,0,1,1.91-2.85.64.64,0,0,1,.9-.1.47.47,0,0,1,.1.1c1.74,1.51,1.86,3.53-.18,5a4.25,4.25,0,0,0-1.91,3.93,11.41,11.41,0,0,1-1.24-4.19C300,123.49,300.31,123,301.07,122.42Z"/><path class="cls-60" d="M301.07,122.42a3.51,3.51,0,0,0-.47,1.9l-.94,1a1.13,1.13,0,0,0-.13-.67C297.49,122.05,299.59,122.46,301.07,122.42Z"/><path class="cls-60" d="M304,119.58h-1c.38-.89,1.58-1.29,1.18-2.76,1,.64.61,1.3.72,1.82A1.6,1.6,0,0,0,304,119.58Z"/><path class="cls-21" d="M297.24,125.84a1.35,1.35,0,0,0-1.82-.07c-.49-.75,0-1.17.59-1.36a.89.89,0,0,1,1.19.41.87.87,0,0,1,.09.45C297.28,125.46,297.26,125.65,297.24,125.84Z"/><path class="cls-52" d="M81.68,95.31c-.69-.56-2.44,0-1.94-1.82C80.83,93.63,81.77,94,81.68,95.31Z"/><path class="cls-107" d="M423.18,112.32c-.14.67-.49,1.16-1.26,1a1.12,1.12,0,0,1-1.11-1.13.66.66,0,0,1,0-.14,1.1,1.1,0,0,1,1.12-1.08h.16A1.17,1.17,0,0,1,423.18,112.32Z"/><path class="cls-108" d="M536.72,145.49c-.06,1.08-.61,1.68-1.63,1.69a1.69,1.69,0,0,1-.13-3.38h0a1.6,1.6,0,0,1,1.75,1.43A1.13,1.13,0,0,1,536.72,145.49Z"/><path class="cls-109" d="M181.89,189.63c-.28,9.5-3.5,17.83-10.28,24.58-2,2-4.4,4-7.49,2.93s-4.14-4-4.4-6.78c-1.13-11.65,1.8-22.12,10.34-30.48,4.08-4,10.11-1.8,11.26,3.87A20.06,20.06,0,0,1,181.89,189.63Z"/><path class="cls-110" d="M323,186.13c-.88,8.56-2.43,16.92-8.16,23.85a10.1,10.1,0,0,1-2.95,2.65c-4,2.12-7.52.63-8.92-3.62a23.86,23.86,0,0,1-.87-10.55c1-7.21,2.89-14.15,7.41-20.08a9.6,9.6,0,0,1,4.45-3.71c4.24-1.35,6.42.67,8,4.48A13.71,13.71,0,0,1,323,186.13Z"/><path class="cls-111" d="M234.76,224l-3.94,4.21a1.82,1.82,0,0,1-1.88,1.55h0A11.78,11.78,0,0,1,234.76,224Z"/><path class="cls-112" d="M240.33,219.24c-1.21,1.78-3.11,2.75-4.75,4C236.48,221.12,238.3,220.06,240.33,219.24Z"/><path class="cls-113" d="M265,231.11c-.76,1-1.83.33-2.74.51-.61.12-1.15.21-.42.91-.43,1.34-1.4,1.2-2.44.89-.09-.37-.16-.9-.69-.71-3.83,1.35-7.57,3-11.49,4-2.49.62-4.56,2.29-7.15,2.45-1,.06-1.1.68-1.12,1.44a7.74,7.74,0,0,1-3.43-.55c-1.52-.48-2,.06-1.88,1.46-1.87.56-3.34,1.93-5.18,2.54a3.12,3.12,0,0,1-1.92-2.48,1.44,1.44,0,0,1,1.22-1c3.91-.79,7.33-2.78,10.9-4.38a23.44,23.44,0,0,1,3.18-.89c5.18-1.52,10.21-3.48,15.23-5.45,1.36-.53,2.37-.5,3.27.67C261.7,231.51,263.33,231.11,265,231.11Z"/><path class="cls-114" d="M228.36,244.05c1.49-1.33,2.8-3,5.18-2.54,1.17,2.67,3.59,4.05,5.82,5.62C235.55,246.6,231.75,246.07,228.36,244.05Z"/><path class="cls-115" d="M259,222.05c.67,1.37.3,2.85.43,4.29.5,1.19-.09,1.64-1.18,2-6.74,2.38-13.57,4.55-20.16,7.34a62.4,62.4,0,0,1-9.44,3,2.85,2.85,0,0,1-2.89-.51c0-.95-.4-2,.31-2.84,5.35-2.24,10.84-4.12,16.31-6,1.89-.66,3-1.17,2.33-3.33a1.22,1.22,0,0,1,.41-1.07l.48-.06a2.45,2.45,0,0,1,.68,1c1.14,1.88,2.25,1.87,3.41,0a2.61,2.61,0,0,1,.7-.94C253.75,225.7,256.46,224.28,259,222.05Z"/><path class="cls-116" d="M225.67,238.18c4.91,0,9.23-2.13,13.71-3.78s9-3.76,13.87-4.82c1.91-.42,3.4-2.18,5.62-2,.44,0,.38-.77.46-1.22.83,1.29,0,2.94.91,4.2-2.58-1.42-4.42.9-6.62,1.38-1.77.38-3.46,1.18-5.23,1.68-1.94.54-3.69,1.58-5.77,2.07-5.6,1.31-10.42,4.89-16.18,5.9A5,5,0,0,1,225.67,238.18Z"/><path class="cls-117" d="M245,225c.9,3,.48,4.77-3.28,5.21-2.43.29-4.86,1.56-7.17,2.57-1.74.76-3.68,1-5.26,2a5.79,5.79,0,0,1-3.34.69c.29-2.23,2.22-3.59,3-5.58l1.88-1.55a3.9,3.9,0,0,1,.78.84c.2.42-.42,1.22.44,1.33s.57-.72.67-1.19c.22-1.11.57-1.74,1.88-1s1.71-.65,2.38-1.22.86-.83,1.86-.42c1.16.47,2.85,1.07,3.6-1.16C242.75,224.45,244.14,225.07,245,225Z"/><path class="cls-118" d="M259,222.05c-.06,1.06-.24,1.85-1.61,2.1a18.09,18.09,0,0,0-3.37,1.49,3.56,3.56,0,0,1-3.85-.73c-.49,0-.61-.4-.76-.75a1.06,1.06,0,0,1,0-1.11c1.65.17,1.17-.8.6-2a3.78,3.78,0,0,0,4.46-.42,3.33,3.33,0,0,1,2.5-.44c1.17.07,1.53-.54,1.57-1.55C259,219.71,258.74,221,259,222.05Z"/><path class="cls-119" d="M249.81,224.22l.27.69c.12,1.55-.16,2.79-2.1,2.87-2.12.08-2.28-1.43-2.47-2.94.07-.33,0-.75.42-.9C247.29,223.17,248.62,222.74,249.81,224.22Z"/><path class="cls-120" d="M249.81,224.22c-1.23-1-2.55-.71-3.88-.28.8-1.48,2.15-.92,3.35-.89Z"/><path class="cls-121" d="M265.55,217.81a1.78,1.78,0,0,0,2.28,0,5.66,5.66,0,0,1,1.45,6.36,2,2,0,0,1-2.4-.13Q266.21,221,265.55,217.81Z"/><path class="cls-122" d="M266.88,224l2.44-.07c1.72,1.3,1.26,3,.86,4.7l-3.3.11Z"/><path class="cls-123" d="M270.18,228.65c-.6-1.51-.05-3.23-.86-4.7a20.8,20.8,0,0,0-1.49-6.16c-.56-2.1-1-4.25-1.69-6.32-.58-1.62-.54-3.24,1.56-4.09s3.75-.62,4.91,1.28,1.37,4.3,2.22,6.4l1.59,6,.48,5.66C275.64,229.81,273.06,230.54,270.18,228.65Z"/><path class="cls-124" d="M387.18,192A37.52,37.52,0,0,1,379.74,214a11.57,11.57,0,0,1-7,4.86,5,5,0,0,1-5.26-2.25,13.45,13.45,0,0,1-2.2-8.54,41.28,41.28,0,0,1,8.46-24.31,8.69,8.69,0,0,1,5.33-3.59c3.74-.7,6.55.95,7.45,4.62A23.24,23.24,0,0,1,387.18,192Z"/><path class="cls-125" d="M273.85,235.23c-1.17-.28-2.48-.42-2.71-1.83-.27-1.68,1-1.79,2.24-1.93,1-.11,1.93-.62,2.92-.78s2.19-.24,2.46,1.12a2.09,2.09,0,0,1-1.48,2.56h0C276.13,234.73,275,235,273.85,235.23Z"/><path class="cls-126" d="M259.3,233.42l2.44-.89H265c1.31,0,1.84.85,1.33,1.81-1,1.9-3,2.09-4.87,2S259,235.16,259.3,233.42Z"/><path class="cls-127" d="M79.81,63.54a2.31,2.31,0,0,1-2.27,2.35,1.08,1.08,0,0,1-.18,0,2.21,2.21,0,0,1-2.31-2.1,2,2,0,0,1,0-.35,2.16,2.16,0,0,1,2.11-2.21h.18C78.87,61.19,79.61,62.1,79.81,63.54Z"/><path class="cls-128" d="M181,189.76a34.44,34.44,0,0,1-9.22,22.94c-1.92,2.06-4.16,4.49-7.28,3.48s-3.72-4.17-4-7A36.21,36.21,0,0,1,169.06,182a10,10,0,0,1,1.94-1.73c3.67-2.72,7.48-1.55,9,2.72A18.16,18.16,0,0,1,181,189.76Z"/><path class="cls-128" d="M303,201.38c.46-8.07,2.44-15.68,7.24-22.35,1.65-2.3,3.72-4.44,6.84-3.78s4.24,3.48,4.57,6.28a38.32,38.32,0,0,1-7.6,28.21,7.69,7.69,0,0,1-2.95,2.32c-2.93,1.38-5.53.44-6.82-2.54A19.83,19.83,0,0,1,303,201.38Z"/><path class="cls-129" d="M247,225.72a.8.8,0,0,1,.74-.85h.13c.51,0,.93.19,1,.72a.92.92,0,0,1-.94.92.93.93,0,0,1-.91-.79Z"/><path class="cls-128" d="M386.29,191.12a38.2,38.2,0,0,1-6.46,21.07,17,17,0,0,1-4,4.29c-3.65,2.69-7.1,1.75-8.62-2.49a20,20,0,0,1-.63-10.48,49.73,49.73,0,0,1,5.58-15.94,14.84,14.84,0,0,1,5.11-5.78c3.65-2.19,7.11-.85,8.37,3.19A23.07,23.07,0,0,1,386.29,191.12Z"/></g></g></svg>